<?xml version="1.0" encoding="UTF-8"?>
<svg id="Content" xmlns="http://www.w3.org/2000/svg" version="1.1" viewBox="0 0 1195.0596 979.8558">
  <!-- Generator: Adobe Illustrator 29.1.0, SVG Export Plug-In . SVG Version: 2.1.0 Build 142)  -->
  <path d="M264.4433,171.6873c-2.8083,0-4.9479,2.2732-4.9479,4.9479,0,2.8083,2.2733,4.9479,4.9479,4.9479,2.8081.1338,4.9478-2.1395,4.9478-4.9479s-2.2732-4.9479-4.9478-4.9479ZM273.8041,164.3324c-2.5408,0-4.6807,2.1395-4.6807,4.6803s2.1399,4.6805,4.6807,4.6805,4.6804-2.1398,4.6804-4.6805-2.1396-4.6803-4.6804-4.6803ZM282.6301,138.1222c-.2673-1.7386-1.8722-2.9421-3.6106-2.6747-1.7383.2676-2.9419,1.8723-2.6746,3.6106.2676,1.7384,1.8723,2.8083,3.6108,2.6746,1.7383-.2676,2.9419-1.8721,2.6743-3.6105ZM259.7627,183.5889c-2.8082,0-5.2152,2.407-5.2152,5.2153s2.407,5.2152,5.2152,5.2152,5.2155-2.4071,5.2155-5.2152c0-2.9421-2.4071-5.2153-5.2155-5.2153ZM293.7292,212.8748c-1.2035,0-2.1396.9363-2.1396,2.1398s.9362,2.1398,2.1396,2.1398,2.1394-.9363,2.1394-2.1398-.9359-2.1398-2.1394-2.1398ZM302.4216,207.2583c-1.3373,0-2.2732,1.0701-2.2732,2.2734,0,1.3374,1.0697,2.2733,2.2732,2.2733,1.2036.1338,2.2732-.9359,2.2732-2.2733s-1.0696-2.2734-2.2732-2.2734ZM285.8392,162.594c-2.3632,0-4.2792,1.9158-4.2792,4.2793s1.916,4.2791,4.2792,4.2791,4.2794-1.9159,4.2794-4.2791-1.9159-4.2793-4.2794-4.2793ZM283.9676,149.0876c1.8722-.2673,3.0759-1.8723,2.8083-3.7444-.2676-1.8722-1.8722-3.0757-3.7443-2.8081-1.8722.2673-3.0757,1.8721-2.8083,3.7444.2676,1.8721,2.0059,3.0757,3.7443,2.8081ZM297.3403,166.2046c-2.1396,0-3.8782,1.7383-3.8782,3.8782s1.7385,3.8777,3.8782,3.8777c2.1394.1338,3.8782-1.6045,3.8782-3.8777,0-2.1399-1.7388-3.8782-3.8782-3.8782ZM265.3798,136.9187c1.4707-.2676,2.5408-1.605,2.2732-3.0757-.2673-1.4711-1.6046-2.5408-3.0757-2.2734-1.4711.2675-2.5408,1.6047-2.2732,3.0756.1335,1.4711,1.4707,2.5409,3.0757,2.2736ZM273.1357,137.5874c1.6046-.2676,2.8081-1.7388,2.5408-3.3433-.2676-1.6047-1.7385-2.8083-3.3433-2.5409-1.6047.1338-2.6746,1.6049-2.5408,3.2095.2676,1.6046,1.7384,2.8081,3.3433,2.6747ZM264.176,164.1986c-.8025.1338-1.3373.8024-1.2035,1.6049.1338.8022.8024,1.337,1.6046,1.2036.8025-.1338,1.3373-.8025,1.2035-1.605-.1335-.8024-.8021-1.3372-1.6046-1.2035ZM305.631,181.9844c2.0056,0,3.4768-1.605,3.4768-3.4771s-1.4712-3.4768-3.4768-3.4768c-1.8721,0-3.4771,1.4711-3.4771,3.4768,0,1.8721,1.4712,3.4771,3.4771,3.4771ZM255.7512,157.1111c-.1338-.936-1.0698-1.6046-2.0059-1.4708s-1.6047,1.0697-1.4709,2.006c.1337.9359.936,1.6045,2.0059,1.4707.936-.1338,1.6047-1.0696,1.4709-2.0059ZM254.0129,150.4248c-.1338-1.0696-1.2036-1.8721-2.2734-1.7383s-1.8721,1.2035-1.7384,2.2732c.1337,1.0701,1.2035,1.8722,2.2733,1.7384,1.0698-.1335,1.8722-1.2035,1.7385-2.2733ZM253.7458,145.7446c1.2034-.2676,2.0059-1.3374,1.8721-2.5408-.2675-1.2039-1.3373-2.006-2.5408-1.8722-1.2036.2672-2.0059,1.337-1.8722,2.5408.1337,1.2035,1.2035,2.0057,2.5409,1.8722ZM258.1581,161.5243c-.8024.1335-1.3373.9359-1.2036,1.7384.1338.8022.8025,1.3373,1.7385,1.2035.8024-.1338,1.3373-.9362,1.2035-1.7384-.1338-.8024-.9359-1.3373-1.7384-1.2035ZM258.1581,140.1279c1.3373-.2673,2.2734-1.4709,2.1398-2.8081-.2676-1.3374-1.4711-2.2733-2.8083-2.1398-1.3373.2675-2.2733,1.4711-2.1395,2.8083.1337,1.3373,1.4709,2.2733,2.8081,2.1395ZM451.9271,164.4659h-4.413l-2.9421,15.2448c-1.3373,6.8201-7.4886,14.4425-14.9773,14.4425-4.413,0-5.7502-2.4071-5.7502-5.7502,0-1.3373.1338-2.6744.4014-4.0116l2.9419-15.5125c.1338-.6685.1338-1.2035.1338-1.6046,0-2.006-1.0701-2.9419-3.4771-2.9419h-4.5465l-.8024,3.8781h2.8081c.8024,0,1.2035.4011,1.2035.936,0,.1338-.0333.3684-.0668.6024-.0334.2339-.0668.4675-.0668.6011l-2.9421,14.9773c-.2673,1.4711-.401,2.9421-.2673,4.2792,0,5.3491,2.6747,8.8259,9.2271,8.8259,7.4886,0,12.5702-5.4827,14.3087-8.5583h.1338l-.1013.403c-.3843,1.5266-.835,3.3173-.835,4.5448,0,1.8722.9363,2.8083,3.3433,2.8083h4.5466l.6687-3.8779h-2.6746c-.8025,0-1.2036-.4014-1.2036-1.0701,0-.4011,0-1.0698.1338-1.4708l5.2155-26.7454ZM668.2971,192.6824c0-.0555.0214-.2026.0481-.375.04-.2439.0854-.5383.0854-.6951l2.9399-14.9772c.2698-1.4708.4033-2.9419.4033-4.1454,0-5.3492-2.8093-8.8259-9.3622-8.8259-7.7546,0-12.7028,5.4827-14.5746,8.5583h-.1362l.1016-.4019c.3845-1.5269.8357-3.3181.8357-4.546,0-1.7384-1.0708-2.8081-3.4767-2.8081h-4.4141l-.6676,3.8781h2.6758c.801,0,1.2015.4011,1.2015,1.0698,0,.2673,0,.9359-.1335,1.4711l-5.0817,26.6112h4.4141l3.0763-15.7795c1.3351-6.5525,7.621-13.9077,15.1113-13.9077,4.5448,0,5.8827,2.5409,5.8827,5.8842,0,1.2035-.1335,2.5408-.4006,3.8781l-3.0762,15.5122c-.1335.5349-.1335,1.0697-.1335,1.4709,0,2.0061,1.0681,2.9419,3.4768,2.9419h4.5476l.6675-3.8779h-2.8091c-.8011,0-1.2017-.2673-1.2017-.936ZM630.05,192.5486c0-.1201.0535-.3492.1149-.6006.0721-.3076.1522-.6497.1522-.8705l2.8092-14.3087c.267-1.3372.4005-2.8081.4005-4.0115,0-5.3492-3.2097-9.0935-10.6973-9.0935-4.5476,0-11.234,1.3372-12.0352,5.6165l-.5366,3.2095h4.4141l.2668-2.1398c.4006-2.4071,5.0818-2.9419,7.3541-2.9419,4.5475,0,6.8199,1.8722,6.8199,5.7502,0,.9523-.0828,1.6556-.1842,2.5032v.0035c-.0267.2219-.0533.4536-.0828.7028l-.1334.8021h-2.139c-10.1632,0-22.3319,2.5408-22.4655,12.1692,0,6.0176,4.6812,8.6921,9.6266,8.6921,8.4248,0,12.4384-7.4885,12.4384-7.4885h.1335c-.4006,1.2034-.8037,3.3431-.8037,4.1455,0,1.7385,1.0707,2.6744,3.6101,2.6744h4.2805l.6676-3.8781h-2.8065c-.9373,0-1.2043-.4011-1.2043-.936ZM627.7776,182.2516c-.9374,4.6805-6.1525,12.4366-12.9724,12.4366-3.6102,0-6.0162-2.1396-6.0162-5.4829,0-7.6223,11.7654-8.4246,17.3838-8.4246h1.8718l-.267,1.4708ZM307.9042,197.2289c-1.4709,0-2.6746,1.2037-2.6746,2.6746s1.2036,2.6747,2.6746,2.6747,2.6747-1.2036,2.6747-2.6747-1.2035-2.6746-2.6747-2.6746ZM600.6312,151.2271c-1.4713,0-2.6757,1.2035-2.6757,2.6743s1.2043,2.6746,2.6757,2.6746c1.4686,0,2.673-1.2035,2.673-2.6746s-1.2043-2.6743-2.673-2.6743ZM749.7337,151.2273c-2.9401,0-5.3486,2.407-5.3486,5.3489s2.275,5.3492,5.3486,5.3492c3.0762,0,5.3513-2.4071,5.3513-5.3492s-2.4086-5.3489-5.3513-5.3489ZM749.7337,160.9893c-2.4059,0-4.2778-1.8723-4.2778-4.4131,0-2.407,1.7384-4.4128,4.2778-4.4128,2.4086,0,4.2805,1.8721,4.2805,4.4128,0,2.407-1.8719,4.4131-4.2805,4.4131ZM597.4214,164.3324h-4.4139l-.8011,3.8781h2.8065c.8037,0,1.2043.2673,1.2043.936,0,.5349,0,.8025-.1335,1.4711l-4.4141,22.1984c-.0747.5287-.1495.9294-.2003,1.2024-.04.2091-.0668.3442-.0668.4025,0,2.0057,1.2043,2.9419,3.4768,2.9419h4.5476l.6675-3.8781h-2.8064c-.8038,0-1.2043-.2673-1.2043-.936,0-.0555.0239-.2026.0508-.3752.0374-.2437.0828-.5381.0828-.6948l4.4139-22.332c.1335-.6687.2671-1.4711.2671-2.006,0-2.006-1.0708-2.8081-3.4768-2.8081ZM727.936,163.6638c-11.2314,0-19.3892,9.8956-19.3892,20.9951,0,8.2908,6.0188,13.9072,14.9778,13.9072,7.0869,0,12.5691-4.413,12.5691-4.413l-1.4713-3.7443s-4.8119,4.0118-10.8308,4.0118c-6.9535,0-10.5638-4.5468-10.5638-10.297,0-1.6046.2671-2.9419.2671-2.9419h25.4081s.9347-2.9419.9347-5.4827c0-6.9539-3.7439-12.0354-11.9016-12.0354ZM735.0256,177.5713h-20.5935c2.2725-6.5527,7.7546-10.1632,13.2368-10.1632,4.2805,0,7.4902,2.5409,7.4902,7.8898,0,1.2037-.1335,2.2734-.1335,2.2734ZM750.7538,156.9941c-.0508-.0503-.0828-.0836-.0828-.1504.5339-.1338,1.0708-.6687,1.0708-1.4711,0-1.0697-.6704-1.7384-1.7412-1.7384h-2.1389v5.6165h1.0708v-2.1396h.9347l1.0708,2.1396h1.2042l-1.2042-2.0059c-.0668-.1338-.1335-.2006-.1842-.2507ZM749.8672,156.4424h-.9347v-1.8721h.9347c.5367,0,.9373.4014.9373.9362s-.4005.9359-.9373.9359ZM695.7105,163.6638c-10.2968,0-19.7924,8.8259-19.7924,20.3264,0,8.8259,5.6157,14.4424,14.7107,14.4424,8.5583,0,12.9697-4.5468,12.9697-4.5468l-1.4685-3.7443s-4.2806,4.1454-11.1006,4.1454-10.5637-4.2792-10.5637-10.6981c0-9.0933,7.354-15.9132,14.8442-15.9132,3.207,0,8.0216,1.2035,7.4875,4.413l-.2671,1.6046h4.1444l.5367-2.6747c1.0681-5.6165-7.0897-7.3547-11.5011-7.3547ZM379.8491,163.6638c-10.297,0-19.7915,8.8259-19.7915,20.3264,0,8.8259,5.6165,14.4424,14.71,14.4424,8.5583,0,12.9712-4.5468,12.9712-4.5468l-1.4709-3.7443s-4.2793,4.1454-11.0992,4.1454-10.5643-4.2792-10.5643-10.6981c0-9.0933,7.355-15.9132,14.8435-15.9132,3.2095,0,8.0236,1.2035,7.4886,4.413l-.2672,1.6046h4.1453l.5349-2.6747c1.0698-5.6165-7.0873-7.3547-11.5002-7.3547ZM402.3144,173.1583h-.1338c.6687-1.4711,1.3374-5.2155,1.3374-6.0175,0-1.7388-.8025-2.6747-3.3433-2.6747h-4.5465l-.8024,3.8781h2.8083c1.2035,0,1.3369.6687,1.2035,1.4709l-5.2155,27.6812h4.4131l2.407-12.704c1.4711-7.6222,6.5527-16.3146,13.6399-16.3146.3768,0,.7112.0425,1.0031.0796.2262.0288.4266.0542.6019.0542l.8021-4.413c-.5349-.1337-1.2035-.1337-1.8722-.1337-5.6165,0-10.0294,4.4128-12.3027,9.0934ZM347.3537,150.4248c-8.9597,0-16.9832,4.9479-16.9832,13.3728,0,7.3247,5.7123,9.5303,11.1199,11.6184,4.8601,1.8767,9.4739,3.6584,9.4739,8.9753,0,5.884-5.349,9.7618-11.9016,9.7618-4.9479,0-10.1633-1.4708-9.3608-5.8838l.6687-3.8781h-4.4131l-.5348,4.2791c-1.4711,7.355,7.4886,9.6284,13.2389,9.6284,9.2271,0,17.2505-5.6165,17.2505-14.4424,0-7.7415-6.0282-10.042-11.5616-12.1537-4.694-1.7913-9.0321-3.4469-9.0321-8.1727,0-5.3489,5.2153-8.8259,11.3667-8.8259,3.6106,0,8.6921.9362,8.0236,4.5466l-.6686,3.3433h4.4128l.9363-4.5466c1.0697-5.3492-6.6865-7.6226-12.0354-7.6226ZM309.3757,185.9958c-1.7386,0-3.2095,1.4712-3.2095,3.2095s1.4708,3.2095,3.2095,3.2095c1.7383-.1338,3.2095-1.4708,3.2095-3.2095s-1.4712-3.2095-3.2095-3.2095ZM567.5993,151.2273h-4.5448l-.8038,3.8782h2.8092c.8011,0,1.2043.2672,1.2043.9358,0,.5349,0,.8025-.1362,1.4712l-6.8199,35.571c-.0562.2283-.0881.4806-.1174.7058-.0402.302-.0723.5548-.1497.6315,0,2.006,1.2043,2.9419,3.4768,2.9419h4.5476l.6675-3.8781h-2.8064c-.8038,0-1.2043-.2673-1.2043-.936,0-.0555.0239-.2026.0508-.3749.0374-.2438.0828-.5385.0828-.6948l6.9534-35.5713c.1335-.6687.2671-1.337.2671-1.8722,0-2.0056-1.0681-2.8081-3.4768-2.8081ZM583.915,151.2273h-4.5476l-.801,3.8782h2.6731c.8037,0,1.2042.2672,1.2042.9358,0,.5349,0,.8025-.1334,1.4712l-6.8201,35.571c-.1335.5349-.2671,1.2035-.1335,1.3373,0,2.006,1.2043,2.9419,3.4768,2.9419h4.5476l.6675-3.8781h-2.8091c-.8013,0-1.2017-.2673-1.2017-.936,0-.0555.0212-.2026.048-.3749.04-.2438.0854-.5385.0854-.6948l6.9535-35.5713c.1335-.6687.2671-1.337.2671-1.8722,0-2.0056-1.0708-2.8081-3.4768-2.8081ZM506.2194,192.5486c0-.0553.024-.2026.0508-.3749.0374-.2438.0828-.5385.0828-.6948l2.9426-15.1111c.2671-1.4711.4006-2.9421.4006-4.1456,0-5.3489-2.5396-8.6921-8.6919-8.6921-6.9536,0-12.0352,5.3491-13.9072,8.4248h-.1338c-.1335-5.2153-2.6743-8.4248-8.5583-8.4248-7.0876,0-12.0354,5.4827-13.7739,8.4248h-.1338c.4014-1.3373.8025-3.4771.8025-4.6805,0-1.7384-1.0697-2.8081-3.4771-2.8081h-4.4126l-.6687,3.8781h2.6743c.8025,0,1.2036.4011,1.2036,1.0698,0,.2673,0,.9359-.1335,1.4711l-5.0817,26.4775h4.413l3.0757-15.5121c1.2035-6.6863,7.0873-14.1749,14.3086-14.1749,4.012,0,5.2153,2.4071,5.2153,5.75,0,1.2037-.1337,2.5408-.4012,4.0118l-3.8781,19.9252h4.4128l3.0757-15.6459c1.3374-6.5525,7.3552-14.0411,14.3076-14.0411,4.0134,0,5.2178,2.4071,5.2178,5.75,0,1.2037-.1362,2.5408-.4032,4.0118l-3.0763,15.5122c-.1334.5349-.1334,1.0699-.1334,1.4711,0,2.006,1.0708,2.9419,3.4767,2.9419h4.5476l.6702-3.8781h-2.8091c-.8037,0-1.2043-.2673-1.2043-.936ZM551.6869,192.1475l-7.2206-40.9202h-4.9481l-23.1355,40.7864c-.6677,1.3374-1.2043,1.4709-2.2725,1.4709h-1.2043l-.6676,4.0117h3.0762c2.673,0,3.6102-.6686,5.3488-3.8779l6.1497-10.9655h18.321l1.8718,10.9655c.6704,3.2094,1.2043,3.8779,3.8774,3.8779h2.8091l.8037-4.1453h-1.2042c-1.0708,0-1.4713-.1338-1.6049-1.2036ZM528.9545,178.7749l9.226-16.5823c1.2042-2.1394,2.9427-6.0176,2.9427-6.0176h.1335s.267,3.8782.5339,6.0176l2.9426,16.5823h-15.7788Z"/>
  <g>
    <path d="M208.0434,645.5459l-19.7344-18.665c-5.2002-4.916-9.6885-8.0508-14.3193-8.0508-4.2031,0-6.9111,2.3506-6.9111,6.7686,0,4.4883,2.6357,7.3379,9.333,8.1211v10.4727c-11.7549-.5693-18.167-7.6934-18.167-19.0928,0-11.2568,6.2695-17.6689,15.46-17.6689,6.7676,0,12.3242,3.9189,18.0244,9.832l9.4043,9.6182v-19.8057h8.7627v38.4707h-1.8525Z"/>
    <path d="M199.7787,582.4268v25.0068h-4.2031l-36.6191-22.0146v-14.1768h32.5586v-6.6963h8.2637v6.6963h10.1172v11.1846h-10.1172ZM191.5151,582.2139h-23.8662l23.8662,13.6787v-13.6787Z"/>
    <path d="M185.7446,562.4111v-18.2383h8.1924v18.2383h-8.1924Z"/>
    <path d="M208.0434,544.2451l-19.7344-18.665c-5.2002-4.916-9.6885-8.0508-14.3193-8.0508-4.2031,0-6.9111,2.3506-6.9111,6.7686,0,4.4883,2.6357,7.3379,9.333,8.1211v10.4727c-11.7549-.5693-18.167-7.6934-18.167-19.0928,0-11.2568,6.2695-17.6689,15.46-17.6689,6.7676,0,12.3242,3.9189,18.0244,9.832l9.4043,9.6182v-19.8057h8.7627v38.4707h-1.8525Z"/>
    <path d="M194.7211,504.2822v-10.6152c4.2744-.6416,7.124-2.3516,7.124-8.1934,0-5.2012-3.6328-7.9795-9.0479-7.9795-5.4854,0-8.9053,3.1348-8.9053,8.2646,0,4.7734,1.71,7.6934,4.0605,9.7598v6.4121l-28.9961-.7129v-32.2725h8.7637v23.6523l12.752.2139c-2.4219-1.9941-4.7012-5.5566-4.7012-11.3281,0-9.2617,6.3398-15.6016,17.1689-15.6016s17.7393,7.7656,17.7393,19.5205c0,12.5381-6.8389,18.3809-15.958,18.8799Z"/>
    <path d="M158.9565,448.8594v-15.2461l31.7031-11.8975-31.7031-11.7559v-14.9609h50.9395v11.4707h-35.7637l35.7637,14.1055v3.7764l-35.7637,14.1777h35.7637v10.3301h-50.9395Z"/>
    <path d="M158.9565,374.9131v-15.0312l50.9395-16.5293v12.041l-11.3281,3.4902v18.4521l11.3281,3.4912v10.8281l-50.9395-16.7422ZM190.3754,374.8428v-13.4648l-22.0146,6.6963,22.0146,6.7686Z"/>
    <path d="M187.9526,333.3818l-28.9961,16.8125v-12.6807l19.5215-10.3301-19.5215-10.1162v-11.1855l28.9961,15.8867h21.9434v11.6133h-21.9434Z"/>
    <path d="M208.0434,295.6982l-19.7344-18.665c-5.2002-4.916-9.6885-8.0508-14.3193-8.0508-4.2031,0-6.9111,2.3506-6.9111,6.7686,0,4.4883,2.6357,7.3379,9.333,8.1211v10.4727c-11.7549-.5693-18.167-7.6934-18.167-19.0928,0-11.2568,6.2695-17.6689,15.46-17.6689,6.7676,0,12.3242,3.9189,18.0244,9.832l9.4043,9.6182v-19.8057h8.7627v38.4707h-1.8525Z"/>
    <path d="M185.6733,255.1641h-2.4219c-15.6738,0-25.0068-9.1191-25.0068-22.2275s8.9766-22.1562,24.792-22.1562h2.3516c15.6025,0,25.291,8.4766,25.291,22.2266,0,13.5371-9.4043,22.1572-25.0059,22.1572ZM185.4594,222.25h-2.2803c-10.2578,0-16.0293,3.5615-16.0293,10.6152,0,7.124,5.4863,10.7568,16.0293,10.7568h2.4229c10.6865,0,16.0303-3.7754,16.0303-10.8994,0-7.1963-5.4863-10.4727-16.1729-10.4727Z"/>
    <path d="M208.0434,210.4268l-19.7344-18.666c-5.2002-4.916-9.6885-8.0508-14.3193-8.0508-4.2031,0-6.9111,2.3516-6.9111,6.7676,0,4.4883,2.6357,7.3389,9.333,8.123v10.4727c-11.7549-.5703-18.167-7.6953-18.167-19.0938,0-11.2559,6.2695-17.668,15.46-17.668,6.7676,0,12.3242,3.918,18.0244,9.8311l9.4043,9.6182v-19.8057h8.7627v38.4717h-1.8525Z"/>
    <path d="M194.7211,170.4619v-10.6152c4.2744-.6406,7.124-2.3506,7.124-8.1924,0-5.2002-3.6328-7.9795-9.0479-7.9795-5.4854,0-8.9053,3.1348-8.9053,8.2637,0,4.7734,1.71,7.6953,4.0605,9.7617v6.4111l-28.9961-.7119v-32.2734h8.7637v23.6523l12.752.2139c-2.4219-1.9951-4.7012-5.5576-4.7012-11.3271,0-9.2617,6.3398-15.6025,17.1689-15.6025s17.7393,7.7646,17.7393,19.5205c0,12.5391-6.8389,18.3809-15.958,18.8789Z"/>
  </g>
  <g>
    <path d="M800.7055,746.0615c-10.1992,0-16.5615,7.3721-16.5615,20.5v.8076c0,13.1279,6.666,20.7012,16.6621,20.7012,10.1992,0,16.5615-7.876,16.5615-20.8018v-.8076c0-12.8252-6.4629-20.3994-16.6621-20.3994Z"/>
    <polygon points="363.8256 775.4482 379.6811 775.4482 371.8041 747.6777 363.8256 775.4482"/>
    <path d="M1041.0087,717.2786h.1833v-12.0024c0-8.3562-6.7739-15.1306-15.1301-15.1306H156.1302c-8.3563,0-15.1302,6.7744-15.1302,15.1306v12.9133c2.6017,27.5066,25.416,48.0996,53.3709,52.7583-27.9549,4.6592-50.7692,25.2522-53.3709,52.7588v11.4221c0,8.3562,6.774,15.1301,15.1302,15.1301h869.9317c8.3562,0,15.1301-6.7739,15.1301-15.1301v-10.5112h-.1833c-2.1721-27.9685-25.2184-48.9583-53.4854-53.6697,28.267-4.7109,51.3132-25.7007,53.4854-53.6692ZM318.2768,803.1172h-20.7012v-28.4775h-23.7314v28.4775h-20.8018v-72.2021h20.8018v27.5674h23.7314v-27.5674h20.7012v72.2021ZM387.5571,803.1172l-3.8369-13.4307h-23.9336l-3.8369,13.4307h-19.2881l23.125-72.2021h26.7607l22.9229,72.2021h-21.9131ZM492.3823,803.1172h-19.9941l-26.3564-45.3408v45.3408h-18.1768v-72.2021h23.3271l23.125,40.6953v-40.6953h18.0752v72.2021ZM585.7973,772.1152c0,18.3789-12.0166,32.2139-35.3438,32.2139-24.5391,0-37.8682-15.248-37.8682-36.8584v-.8086c0-22.0137,16.1562-36.8584,37.8682-36.8584,17.0654,0,32.2139,7.7754,33.627,26.5586h-20.499c-1.0098-6.7656-5.3525-10.3008-13.0273-10.3008-10.1992,0-16.3594,7.877-16.3594,20.9043v.8076c0,11.7139,4.3428,20.8018,16.8652,20.8018,10.0977,0,13.9355-5.1494,14.3389-10.9053h-13.5322v-14.4404h33.9307v8.8857ZM658.1069,733.1357l-30.2949,54.0264h28.7793v15.9551h-58.5693v-2.3223l30.6982-54.0264h-26.7598v-15.8535h56.1465v2.2207ZM742.3315,803.1172h-20.7012v-28.4775h-23.7314v28.4775h-20.8018v-72.2021h20.8018v27.5674h23.7314v-27.5674h20.7012v72.2021ZM838.978,766.9658c0,22.2158-15.248,37.3633-38.5752,37.3633s-37.8682-15.1475-37.8682-36.8584v-.8086c0-22.0137,16.5605-36.7578,38.1709-36.7578,22.0146,0,38.2725,13.835,38.2725,36.2529v.8086ZM922.8998,773.5293c0,21.0039-12.3203,30.7998-32.2129,30.7998-20.3994,0-32.0117-10.3008-32.0117-30.4971v-42.917h20.7012v42.0088c0,10.1992,2.5244,15.1465,11.3105,15.1465,8.583,0,11.3096-4.6445,11.3096-15.4502v-41.7051h20.9033v42.6143Z"/>
  </g>
  <g>
    <path d="M260.9408,246.5986h44.2148c29.5303,0,45.9531,12.002,45.9531,35.8467v.6318c0,16.1074-8.5273,25.1074-20.3711,29.6875l27.0039,46.7422h-34.1094l-22.8984-40.4258h-7.5791v40.4258h-32.2139v-112.9082ZM303.5776,298.0791c10.8955,0,16.2646-4.5801,16.2646-13.7383v-.6328c0-9.1582-5.6846-12.791-16.1074-12.791h-10.5801v27.1621h10.4229Z"/>
    <path d="M360.1108,319.2393v-1.2637c0-26.5293,19.7393-43.2676,44.6895-43.2676,22.582,0,42.0049,12.9482,42.0049,42.6367v7.4219h-58.1123c.79,10.8955,7.1064,17.2119,17.2129,17.2119,9.3164,0,13.2646-4.2637,14.3701-9.79h26.5293c-2.5264,18.6328-16.8965,29.2129-41.8467,29.2129-25.8984,0-44.8477-15.1592-44.8477-42.1621ZM419.3285,308.8174c-.4736-9.9492-5.3691-15.4766-14.5283-15.4766-8.5273,0-14.3701,5.5273-15.791,15.4766h30.3193Z"/>
    <path d="M454.3852,359.5068h28.1084c1.2637,6,4.8955,10.7383,15.1602,10.7383,12.4746,0,17.5273-7.1064,17.5273-17.3711v-12.6328c-4.2637,7.8965-13.2637,15.1602-25.582,15.1602-19.2646,0-35.0566-14.2129-35.0566-39.6367v-1.2637c0-24.3184,15.6338-39.793,35.0566-39.793,13.1074,0,20.8457,5.5264,25.582,13.8965v-11.6855h28.2676v75.6396c0,24.6348-16.2656,37.583-45.7949,37.583-28.1094,0-41.0586-11.8438-43.2686-30.6348ZM515.9711,315.6064v-1.1055c0-11.3691-5.8428-18.6328-16.2646-18.6328-10.5801,0-16.2656,7.4219-16.2656,18.791v1.2637c0,11.3691,6.001,18.6338,16.1074,18.6338s16.4229-7.2646,16.4229-18.9502Z"/>
    <path d="M559.5551,254.4951c0-8.3701,6.6318-14.6865,15.4756-14.6865s15.6328,6.3164,15.6328,14.6865-6.79,14.5273-15.6328,14.5273-15.4756-6.1582-15.4756-14.5273ZM560.976,276.9189h28.2666v82.5879h-28.2666v-82.5879Z"/>
    <path d="M602.3491,319.2393v-1.2637c0-26.5293,19.7402-43.2676,45.3223-43.2676,25.4238,0,45.0049,16.2646,45.0049,42.4785v1.2627c0,26.8447-19.7393,42.9521-45.1631,42.9521s-45.1641-15.4746-45.1641-42.1621ZM663.936,318.7646v-1.2627c0-13.8965-5.5273-21.6338-16.2646-21.6338-10.5801,0-16.4238,7.4219-16.4238,21.3184v1.2627c0,14.2119,5.5273,21.9502,16.4238,21.9502,10.5801,0,16.2646-7.8955,16.2646-21.6348Z"/>
    <path d="M704.9936,276.9189h28.2666v13.2637c4.4219-8.5273,13.4229-15.4746,27.1611-15.4746,15.9492,0,27.0039,9.9473,27.0039,31.1084v53.6904h-28.2676v-48.0059c0-9.3164-3.6309-13.8965-11.8438-13.8965-8.3691,0-14.0537,5.0537-14.0537,15.6338v46.2686h-28.2666v-82.5879Z"/>
    <path d="M798.7944,336.6094c0-19.4229,16.4238-27.0029,43.9004-27.0029h7.8955v-1.8945c0-7.8965-1.8955-13.1074-10.8955-13.1074-7.7383,0-10.5811,4.5801-11.2129,9.791h-26.5293c1.2637-19.8975,16.8965-29.6875,39.4785-29.6875,22.7402,0,37.2676,9.3164,37.2676,31.2656v53.5332h-27.4766v-9.6328c-3.9482,6.001-11.2129,11.5273-24.4766,11.5273-14.8438,0-27.9512-7.2637-27.9512-24.792ZM850.5903,330.6084v-5.0527h-7.4219c-11.3701,0-16.4229,2.2109-16.4229,9.001,0,4.7373,3.1582,7.7373,9.79,7.7373,8.0537,0,14.0547-4.5791,14.0547-11.6855Z"/>
    <path d="M895.5951,240.5986h28.1074v118.9082h-28.1074v-118.9082Z"/>
    <path d="M253.6762,466.6768h30.7939c.7891,8.0527,4.4209,14.6855,17.8438,14.6855,9.3164,0,14.5273-4.5801,14.5273-11.2119,0-6.9482-4.2637-8.8428-17.8438-10.8955-31.8984-3.791-42.6367-13.2656-42.6367-36.0049,0-20.3701,16.7383-35.2148,43.7422-35.2148,27.1611,0,42.4785,11.3701,44.5312,35.2148h-30.0039c-1.1055-8.0537-5.6836-12.1592-14.5273-12.1592-8.6855,0-13.1074,3.9473-13.1074,9.6328,0,6.3164,3.4746,9.1582,17.5293,11.0537,28.582,3.1582,43.2676,10.5801,43.2676,35.0566,0,20.6865-16.4229,37.583-45.4785,37.583-31.583,0-47.6895-13.2637-48.6377-37.7402Z"/>
    <path d="M356.6342,462.2549v-1.2637c0-27.4766,19.7383-43.2676,44.0576-43.2676,20.2129,0,38.8467,8.8428,40.4258,33.9512h-26.5303c-1.2627-7.7383-5.0527-12.002-13.2637-12.002-9.9492,0-15.792,7.1064-15.792,21.002v1.2637c0,14.3711,5.5273,21.793,16.2646,21.793,7.8965,0,13.4238-4.7383,14.3711-13.7393h25.4238c-.7891,20.8447-14.8438,34.4248-41.5312,34.4248-24.6348,0-43.4258-14.3691-43.4258-42.1621Z"/>
    <path d="M453.1186,419.9346h28.2666v16.4219c5.2119-12.3164,13.8965-17.6855,26.6875-17.5273v26.3711c-17.2119-.4746-26.6875,4.8945-26.6875,18.1602v39.1621h-28.2666v-82.5879Z"/>
    <path d="M520.0737,473.7822v-53.8477h28.2666v49.2676c0,9.3174,3.6318,13.8965,11.6855,13.8965,8.5273,0,14.0537-5.0527,14.0537-15.6328v-47.5312h28.2676v82.5879h-28.2676v-12.791c-4.4219,8.5273-12.4746,14.6855-26.2129,14.6855-15.9492,0-27.793-9.79-27.793-30.6348Z"/>
    <path d="M619.0854,419.9346h28.2656v12.6328c4.4219-7.8965,13.1074-14.8438,25.8984-14.8438,10.8955,0,18.4746,4.7363,22.4238,13.7383,7.1055-9.6328,16.8965-13.7383,27.3184-13.7383,15.6328,0,27.0029,10.1055,27.0029,30.793v54.0059h-28.2666v-49.2695c0-8.3691-4.1055-12.4746-10.5801-12.4746-7.5801,0-12.6328,4.8955-12.6328,13.8965v47.8477h-27.9512v-49.2695c0-8.3691-4.1055-12.4746-10.5801-12.4746-7.5801,0-12.6328,4.8955-12.6328,13.8965v47.8477h-28.2656v-82.5879Z"/>
    <path d="M254.9399,589.7939v-1.2637c0-34.4238,25.2666-57.6377,59.2178-57.6377,26.6875,0,50.374,12.1592,52.584,41.5312h-32.0557c-1.5791-10.5801-8.3701-16.1074-20.3711-16.1074-15.9492,0-25.5811,12.3174-25.5811,32.6885v1.2637c0,18.3174,6.7891,32.5293,26.3711,32.5293,15.791,0,21.791-8.0527,22.4238-17.0547h-21.1602v-22.5811h53.0586v13.8955c0,28.7402-18.792,50.375-55.2695,50.375-38.373,0-59.2178-23.8447-59.2178-57.6387Z"/>
    <path d="M377.4819,622.6396c0-19.4229,16.4229-27.002,43.8994-27.002h7.8955v-1.8955c0-7.8955-1.8945-13.1064-10.8955-13.1064-7.7373,0-10.5811,4.5791-11.2119,9.79h-26.5293c1.2637-19.8975,16.8965-29.6875,39.4785-29.6875,22.7393,0,37.2676,9.3174,37.2676,31.2666v53.5332h-27.4775v-9.6328c-3.9482,6-11.2119,11.5273-24.4766,11.5273-14.8438,0-27.9502-7.2637-27.9502-24.793ZM429.2768,616.6396v-5.0527h-7.4219c-11.3691,0-16.4229,2.21-16.4229,9,0,4.7383,3.1582,7.7383,9.79,7.7383,8.0547,0,14.0547-4.5801,14.0547-11.6855Z"/>
    <path d="M476.81,619.0088v-36.7949h-9.9492v-19.2646h9.9492v-17.2129h28.2656v17.2129h16.2656v19.2646h-16.2656v34.1094c0,6.001,3.001,8.6855,8.3701,8.6855,3.1582,0,5.5264-.4736,8.0537-1.4209v21.4756c-3.6328.9473-9.002,2.3691-15.6338,2.3691-18.6338,0-29.0557-9.001-29.0557-28.4238Z"/>
    <path d="M534.4477,526.6289h28.2666v49.585c4.4219-8.5273,13.4219-15.4756,27.1602-15.4756,15.9492,0,27.0039,9.9482,27.0039,31.1084v53.6914h-28.2666v-48.0059c0-9.3164-3.6318-13.8965-11.8438-13.8965-8.3691,0-14.0537,5.0527-14.0537,15.6328v46.2695h-28.2666v-118.9092Z"/>
    <path d="M628.5639,605.2695v-1.2627c0-26.5293,19.7393-43.2686,44.6895-43.2686,22.582,0,42.0049,12.9482,42.0049,42.6367v7.4219h-58.1123c.79,10.8955,7.1064,17.2119,17.2129,17.2119,9.3164,0,13.2646-4.2637,14.3701-9.79h26.5293c-2.5264,18.6338-16.8965,29.2139-41.8467,29.2139-25.8984,0-44.8477-15.1602-44.8477-42.1631ZM687.7817,594.8477c-.4736-9.9482-5.3691-15.4756-14.5283-15.4756-8.5273,0-14.3701,5.5273-15.791,15.4756h30.3193Z"/>
    <path d="M727.4174,562.9492h28.2666v16.4229c5.2119-12.3174,13.8965-17.6865,26.6875-17.5283v26.3721c-17.2119-.4746-26.6875,4.8945-26.6875,18.1592v39.1631h-28.2666v-82.5889Z"/>
    <path d="M794.3725,540.5254c0-8.3701,6.6328-14.6865,15.4756-14.6865s15.6338,6.3164,15.6338,14.6865-6.791,14.5283-15.6338,14.5283-15.4756-6.1592-15.4756-14.5283ZM795.7944,562.9492h28.2656v82.5889h-28.2656v-82.5889Z"/>
    <path d="M841.5893,562.9492h28.2656v13.2646c4.4219-8.5273,13.4238-15.4756,27.1621-15.4756,15.9492,0,27.0029,9.9482,27.0029,31.1084v53.6914h-28.2666v-48.0059c0-9.3164-3.6318-13.8965-11.8438-13.8965-8.3691,0-14.0547,5.0527-14.0547,15.6328v46.2695h-28.2656v-82.5889Z"/>
    <path d="M935.5483,645.5381h28.1074c1.2637,6,4.8965,10.7383,15.1602,10.7383,12.4746,0,17.5283-7.1074,17.5283-17.3711v-12.6328c-4.2637,7.8955-13.2646,15.1592-25.582,15.1592-19.2646,0-35.0566-14.2119-35.0566-39.6357v-1.2637c0-24.3184,15.6338-39.7939,35.0566-39.7939,13.1064,0,20.8447,5.5264,25.582,13.8965v-11.6855h28.2666v75.6396c0,24.6348-16.2656,37.584-45.7949,37.584-28.1084,0-41.0576-11.8438-43.2676-30.6348ZM997.1342,601.6377v-1.1055c0-11.3691-5.8438-18.6338-16.2656-18.6338-10.5801,0-16.2646,7.4219-16.2646,18.792v1.2637c0,11.3691,6.001,18.6328,16.1064,18.6328s16.4238-7.2637,16.4238-18.9492Z"/>
  </g>
  <path d="M1039.1784,580.5681c0-10.4435,8.5064-18.7815,19.2867-18.7815,10.9482,0,19.3702,8.2536,19.3702,18.6971,0,10.6119-8.5899,18.6971-19.3702,18.6971-10.6968,0-19.2867-8.0013-19.2867-18.6126h0ZM1074.1301,580.4836c0-9.0959-6.5693-15.4964-15.6649-15.4964s-15.5814,6.4849-15.5814,15.5808c0,9.18,6.8216,15.4125,15.5814,15.4125,8.8431,0,15.6649-6.4009,15.6649-15.4969ZM1051.3058,571.0509h7.5796c5.0534,0,7.665,2.0216,7.665,5.9797v.0845c0,2.6106-1.2636,4.0426-3.1163,4.8845l4.2109,7.4956h-6.0646l-3.3686-6.3165h-1.0103v6.3165h-5.8958v-18.4443h0ZM1058.4652,579.3888c1.5994,0,2.3573-.6739,2.3573-1.9371v-.0845c0-1.3475-.758-1.8527-2.3573-1.8527h-1.2636v3.8742h1.2636Z"/>
</svg>