<svg width="1388" height="223" viewBox="0 0 1388 223" fill="none" xmlns="http://www.w3.org/2000/svg">
<path d="M1122.41 176.144C1103.83 176.144 1096.74 164.246 1096.74 147.621V146.072C1096.74 127.084 1108.07 116.082 1122.9 116.082C1136.02 116.082 1143.76 121.868 1144.98 133.277H1129.66C1129.09 130.425 1127.63 128.388 1123.47 128.388C1117.11 128.388 1113.61 133.929 1113.28 143.79C1115.89 139.797 1119.72 137.026 1126.89 137.026C1137.49 137.026 1146.21 143.464 1146.21 155.689C1146.21 167.994 1137.24 176.144 1122.41 176.144ZM1122.25 164.327C1126.89 164.327 1129.99 160.823 1129.99 155.852C1129.99 150.962 1127.06 147.458 1122.25 147.458C1117.44 147.458 1114.34 151.043 1114.34 155.689C1114.34 160.823 1117.44 164.327 1122.25 164.327Z" fill="white"/>
<path d="M1044.56 175.166V172.803L1064.93 151.206C1070.72 145.013 1074.55 140.042 1074.55 135.152C1074.55 131.24 1072.51 128.632 1068.35 128.632C1064.2 128.632 1061.59 131.159 1060.86 138.086H1045.7C1046.27 123.498 1055.07 116.082 1069.17 116.082C1083.43 116.082 1091.01 123.743 1091.01 134.5C1091.01 142.486 1086.53 148.517 1080.01 154.792L1071.86 162.697H1091.42V175.166H1044.56Z" fill="white"/>
<path d="M1013.72 176.144C997.419 176.144 987.15 165.631 987.15 147.295V144.85C987.15 126.432 998.641 116.082 1014.04 116.082C1029.36 116.082 1040.94 125.617 1040.94 144.524V146.806C1040.94 165.305 1030.34 176.144 1013.72 176.144ZM1014.21 163.186C1021.38 163.186 1024.23 157.889 1024.23 147.132V144.768C1024.23 134.092 1021.13 128.714 1014.04 128.714C1007.04 128.714 1003.86 134.011 1003.86 144.768V147.213C1003.86 158.052 1007.04 163.186 1014.21 163.186Z" fill="white"/>
<path d="M935.128 175.166V172.803L955.502 151.206C961.288 145.013 965.118 140.042 965.118 135.152C965.118 131.24 963.081 128.632 958.924 128.632C954.768 128.632 952.16 131.159 951.427 138.086H936.269C936.839 123.498 945.641 116.082 959.739 116.082C974.001 116.082 981.58 123.743 981.58 134.5C981.58 142.486 977.098 148.517 970.578 154.792L962.429 162.697H981.988V175.166H935.128Z" fill="white"/>
<path d="M1370.26 94.1654V35.8965H1387.13V94.1654H1370.26Z" fill="white"/>
<path d="M1304.49 94.1654L1323.15 35.8965H1344.75L1363.25 94.1654H1345.57L1342.47 83.3266H1323.15L1320.06 94.1654H1304.49ZM1332.85 49.4247L1326.41 71.8358H1339.21L1332.85 49.4247Z" fill="white"/>
<path d="M1245.15 94.1654V35.8965H1261.94V58.1446H1281.09V35.8965H1297.79V94.1654H1281.09V71.1838H1261.94V94.1654H1245.15Z" fill="white"/>
<path d="M1208.47 95.1433C1188.66 95.1433 1177.91 82.8376 1177.91 65.3976V64.7457C1177.91 46.9798 1190.95 35 1208.47 35C1222.24 35 1234.46 41.2751 1235.6 56.4332H1219.06C1218.25 50.973 1214.74 48.1207 1208.55 48.1207C1200.32 48.1207 1195.35 54.4773 1195.35 64.9902V65.6421C1195.35 75.0955 1198.85 82.4301 1208.96 82.4301C1217.11 82.4301 1220.2 78.2739 1220.53 73.6286H1209.61V61.9748H1236.99V69.1464C1236.99 83.9785 1227.29 95.1433 1208.47 95.1433Z" fill="white"/>
<path d="M1117.65 94.1654V35.8965H1136.48L1155.14 68.739V35.8965H1169.73V94.1654H1153.59L1132.32 57.5742V94.1654H1117.65Z" fill="white"/>
<path d="M1052.21 94.1654L1070.87 35.8965H1092.47L1110.96 94.1654H1093.28L1090.18 83.3266H1070.87L1067.77 94.1654H1052.21ZM1080.57 49.4247L1074.13 71.8358H1086.92L1080.57 49.4247Z" fill="white"/>
<path d="M992.864 94.1654V35.8965H1009.65V58.1446H1028.8V35.8965H1045.51V94.1654H1028.8V71.1838H1009.65V94.1654H992.864Z" fill="white"/>
<path d="M961.451 95.1439C945.152 95.1439 936.84 88.2983 936.351 75.6665H952.242C952.65 79.8228 954.524 83.2456 961.451 83.2456C966.259 83.2456 968.949 80.8822 968.949 77.4594C968.949 73.8737 966.748 72.8957 959.74 71.8363C943.278 69.8804 937.736 64.9907 937.736 53.2554C937.736 42.7426 946.374 35.082 960.31 35.082C974.327 35.082 982.232 40.9497 983.292 53.2554H967.808C967.237 49.0992 964.874 46.9803 960.31 46.9803C955.828 46.9803 953.546 49.0177 953.546 51.9515C953.546 55.2113 955.339 56.6782 962.592 57.6562C977.343 59.286 984.922 63.1163 984.922 75.748C984.922 86.4239 976.446 95.1439 961.451 95.1439Z" fill="white"/>
<path d="M527.466 15.3711H547.884C561.521 15.3711 569.105 20.9131 569.105 31.9244V32.2162C569.105 39.6545 565.167 43.8111 559.698 45.9257L572.168 67.5109H556.416L545.842 48.8425H542.342V67.5109H527.466L527.466 15.3711ZM547.155 39.144C552.187 39.144 554.666 37.0289 554.666 32.7997V32.508C554.666 28.2783 552.041 26.6012 547.228 26.6012H542.342V39.144H547.155Z" fill="white"/>
<path d="M573.264 48.9158V48.3323C573.264 36.0812 582.379 28.3516 593.901 28.3516C604.329 28.3516 613.299 34.331 613.299 48.0409V51.4683H586.463C586.828 56.4998 589.744 59.4166 594.412 59.4166C598.714 59.4166 600.537 57.4477 601.048 54.8957H613.299C612.132 63.5007 605.496 68.3865 593.974 68.3865C582.015 68.3865 573.264 61.3856 573.264 48.9158ZM600.61 44.1031C600.391 39.5086 598.131 36.9565 593.901 36.9565C589.963 36.9565 587.265 39.5086 586.609 44.1031H600.61Z" fill="white"/>
<path d="M616.796 67.5111H629.776C630.36 70.2823 632.037 72.4699 636.777 72.4699C642.538 72.4699 644.871 69.1882 644.871 64.4485V58.6143C642.902 62.2609 638.746 65.6152 633.058 65.6152C624.161 65.6152 616.869 59.0522 616.869 47.3112V46.7281C616.869 35.4981 624.088 28.3516 633.058 28.3516C639.11 28.3516 642.684 30.9036 644.871 34.7689V29.3726H657.925V64.3025C657.925 75.6787 650.414 81.6585 636.777 81.6585C623.797 81.6585 617.817 76.189 616.796 67.5111ZM645.236 47.2386V46.7281C645.236 41.4774 642.538 38.1231 637.725 38.1231C632.839 38.1231 630.214 41.5505 630.214 46.8011V47.3842C630.214 52.6349 632.985 55.9892 637.652 55.9892C642.319 55.9892 645.236 52.6349 645.236 47.2386Z" fill="white"/>
<path d="M665.365 19.0185C665.365 15.1532 668.428 12.2363 672.512 12.2363C676.596 12.2363 679.731 15.1532 679.731 19.0185C679.731 22.8837 676.595 25.7271 672.512 25.7271C668.428 25.7271 665.365 22.8833 665.365 19.0185ZM666.022 29.3736H679.075V67.5122H666.022V29.3736Z" fill="white"/>
<path d="M685.129 48.9158V48.3322C685.129 36.0812 694.244 28.3516 706.058 28.3516C717.799 28.3516 726.841 35.8624 726.841 47.9678V48.551C726.841 60.9481 717.726 68.3864 705.985 68.3864C694.244 68.3864 685.129 61.2399 685.129 48.9158ZM713.569 48.6971V48.1135C713.569 41.6962 711.017 38.1232 706.058 38.1232C701.172 38.1232 698.474 41.5506 698.474 47.9679V48.551C698.474 55.1144 701.026 58.6875 706.058 58.6875C710.944 58.6875 713.569 55.0414 713.569 48.6971Z" fill="white"/>
<path d="M732.527 29.3726H745.58V35.4981C747.622 31.5602 751.779 28.3516 758.123 28.3516C765.489 28.3516 770.593 32.9456 770.593 42.7172V67.5111H757.54V45.3423C757.54 41.04 755.863 38.9254 752.071 38.9254C748.206 38.9254 745.58 41.2587 745.58 46.1446V67.5111H732.527L732.527 29.3726Z" fill="white"/>
<path d="M775.845 56.9372C775.845 47.9678 783.429 44.4674 796.117 44.4674H799.764V43.5926C799.764 39.946 798.889 37.5396 794.732 37.5396C791.159 37.5396 789.846 39.6547 789.554 42.0611H777.303C777.887 32.8725 785.106 28.3516 795.534 28.3516C806.035 28.3516 812.744 32.6538 812.744 42.7903V67.5111H800.055V63.0627C798.232 65.834 794.878 68.3864 788.752 68.3864C781.897 68.3864 775.845 65.0317 775.845 56.9372ZM799.764 54.1664V51.8327H796.336C791.086 51.8327 788.752 52.8536 788.752 55.9893C788.752 58.1769 790.211 59.5628 793.273 59.5628C796.993 59.5628 799.764 57.4477 799.764 54.1664Z" fill="white"/>
<path d="M820.547 12.6094H833.527V67.5204H820.547V12.6094Z" fill="white"/>
<path d="M524.111 116.996H538.332C538.696 120.715 540.373 123.778 546.572 123.778C550.874 123.778 553.281 121.663 553.281 118.6C553.281 115.391 551.312 114.516 545.04 113.568C530.31 111.818 525.351 107.443 525.351 96.9417C525.351 87.5349 533.081 80.6797 545.551 80.6797C558.094 80.6797 565.167 85.9303 566.115 96.9417H552.26C551.749 93.2225 549.635 91.3266 545.551 91.3266C541.54 91.3266 539.498 93.1499 539.498 95.775C539.498 98.6919 541.103 100.005 547.593 100.88C560.792 102.338 567.574 105.765 567.574 117.068C567.574 126.621 559.99 134.424 546.572 134.424C531.987 134.424 524.549 128.299 524.111 116.996Z" fill="white"/>
<path d="M571.656 114.967V114.383C571.656 101.695 580.772 94.4023 592.002 94.4023C601.336 94.4023 609.941 98.4859 610.67 110.081H598.419C597.836 106.507 596.086 104.538 592.294 104.538C587.7 104.538 585.001 107.82 585.001 114.237V114.821C585.001 121.457 587.554 124.884 592.512 124.884C596.159 124.884 598.711 122.696 599.148 118.54H610.889C610.524 128.166 604.034 134.437 591.71 134.437C580.334 134.437 571.656 127.801 571.656 114.967Z" fill="white"/>
<path d="M616.212 95.4202H629.265V103.004C631.672 97.3161 635.682 94.8367 641.589 94.9098V107.088C633.641 106.869 629.265 109.348 629.265 115.474V133.559H616.212V95.4202Z" fill="white"/>
<path d="M647.136 120.283V95.416H660.189V118.168C660.189 122.47 661.866 124.585 665.585 124.585C669.523 124.585 672.076 122.251 672.076 117.366V95.4161H685.129V133.555H672.076V127.648C670.034 131.586 666.315 134.43 659.97 134.43C652.605 134.43 647.136 129.908 647.136 120.283Z" fill="white"/>
<path d="M692.855 95.4234H705.908V101.257C707.95 97.611 711.96 94.4023 717.867 94.4023C722.899 94.4023 726.399 96.59 728.222 100.747C731.504 96.2982 736.025 94.4023 740.838 94.4023C748.057 94.4023 753.308 99.0694 753.308 108.622V133.562H740.255V110.81C740.255 106.945 738.359 105.049 735.369 105.049C731.868 105.049 729.535 107.31 729.535 111.466V133.562H716.627V110.81C716.627 106.945 714.731 105.049 711.742 105.049C708.241 105.049 705.908 107.31 705.908 111.466V133.562H692.854L692.855 95.4234Z" fill="white"/>
<path d="M524.696 173.859V173.275C524.696 157.378 536.364 146.658 552.042 146.658C564.367 146.658 575.305 152.273 576.326 165.837H561.523C560.793 160.951 557.657 158.399 552.115 158.399C544.75 158.399 540.302 164.087 540.302 173.494V174.078C540.302 182.537 543.437 189.099 552.48 189.099C559.772 189.099 562.543 185.381 562.835 181.224H553.063V170.796H577.566V177.213C577.566 190.485 568.888 200.476 552.042 200.476C534.322 200.476 524.696 189.464 524.696 173.859Z" fill="white"/>
<path d="M581.285 189.024C581.285 180.054 588.869 176.554 601.558 176.554H605.204V175.678C605.204 172.032 604.329 169.626 600.172 169.626C596.599 169.626 595.286 171.741 594.995 174.147H582.744C583.327 164.959 590.547 160.438 600.975 160.438C611.476 160.438 618.184 164.74 618.184 174.876V199.597H605.496V195.149C603.673 197.92 600.318 200.472 594.193 200.472C587.338 200.472 581.285 197.118 581.285 189.024ZM605.204 186.252V183.919H601.777C596.526 183.919 594.193 184.94 594.193 188.076C594.193 190.263 595.651 191.649 598.714 191.649C602.433 191.649 605.204 189.534 605.204 186.252Z" fill="white"/>
<path d="M627.151 187.348V170.357H622.557V161.461H627.151V153.512H640.204V161.461H647.715V170.357H640.204V186.109C640.204 188.88 641.59 190.119 644.069 190.119C645.527 190.119 646.621 189.901 647.788 189.463V199.381C646.111 199.818 643.631 200.474 640.569 200.474C631.964 200.474 627.151 196.318 627.151 187.348Z" fill="white"/>
<path d="M653.771 144.686H666.824V167.584C668.866 163.646 673.022 160.437 679.366 160.437C686.732 160.437 691.836 165.031 691.836 174.803V199.597H678.783V177.428C678.783 173.126 677.106 171.011 673.314 171.011C669.449 171.011 666.824 173.345 666.824 178.231V199.597H653.771L653.771 144.686Z" fill="white"/>
<path d="M697.234 181.002V180.419C697.234 168.168 706.35 160.438 717.872 160.438C728.3 160.438 737.269 166.417 737.269 180.127V183.554H710.434C710.798 188.586 713.715 191.503 718.382 191.503C722.685 191.503 724.508 189.534 725.018 186.982H737.269C736.103 195.587 729.467 200.472 717.945 200.472C705.985 200.472 697.234 193.472 697.234 181.002ZM724.581 176.189C724.362 171.595 722.101 169.042 717.872 169.042C713.934 169.042 711.236 171.595 710.58 176.189H724.581Z" fill="white"/>
<path d="M742.88 161.471H755.933V169.055C758.34 163.367 762.35 160.887 768.257 160.961V173.139C760.309 172.92 755.933 175.399 755.933 181.525V199.61H742.88V161.471Z" fill="white"/>
<path d="M773.802 151.114C773.802 147.249 776.865 144.332 780.948 144.332C785.032 144.332 788.168 147.249 788.168 151.114C788.168 154.979 785.032 157.823 780.948 157.823C776.865 157.823 773.802 154.979 773.802 151.114ZM774.458 161.469H787.511V199.608H774.458V161.469Z" fill="white"/>
<path d="M795.607 161.459H808.661V167.584C810.703 163.646 814.859 160.438 821.203 160.438C828.569 160.438 833.673 165.032 833.673 174.804V199.597H820.62V177.429C820.62 173.126 818.943 171.011 815.151 171.011C811.286 171.011 808.661 173.345 808.661 178.231V199.597H795.607L795.607 161.459Z" fill="white"/>
<path d="M838.995 199.597H851.975C852.559 202.368 854.236 204.556 858.976 204.556C864.737 204.556 867.07 201.275 867.07 196.534V190.701C865.102 194.347 860.945 197.701 855.257 197.701C846.36 197.701 839.068 191.138 839.068 179.398V178.814C839.068 167.584 846.287 160.438 855.257 160.438C861.31 160.438 864.883 162.99 867.07 166.855V161.459H880.124V196.389C880.124 207.765 872.613 213.744 858.976 213.744C845.996 213.744 840.016 208.275 838.995 199.597ZM867.435 179.325V178.814C867.435 173.564 864.737 170.209 859.924 170.209C855.038 170.209 852.413 173.636 852.413 178.887V179.471C852.413 184.721 855.184 188.076 859.851 188.076C864.518 188.076 867.435 184.721 867.435 179.325Z" fill="white"/>
<path d="M886.85 169.589C886.85 164.766 890.778 160.916 895.756 160.916C900.812 160.916 904.701 164.727 904.701 169.55C904.701 174.451 900.734 178.184 895.756 178.184C890.816 178.184 886.85 174.489 886.85 169.589ZM902.99 169.55C902.99 165.35 899.956 162.394 895.756 162.394C891.556 162.394 888.561 165.389 888.561 169.589C888.561 173.828 891.711 176.707 895.756 176.707C899.84 176.707 902.99 173.751 902.99 169.55ZM892.45 165.194H895.95C898.284 165.194 899.49 166.128 899.49 167.956V167.995C899.49 169.2 898.906 169.861 898.051 170.25L899.995 173.712H897.195L895.639 170.795H895.172V173.712H892.45L892.45 165.194ZM895.756 169.045C896.495 169.045 896.845 168.733 896.845 168.15V168.111C896.845 167.489 896.495 167.256 895.756 167.256H895.173V169.045L895.756 169.045Z" fill="white"/>
<mask id="mask0_76_3749" style="mask-type:luminance" maskUnits="userSpaceOnUse" x="0" y="47" width="425" height="136">
<path d="M424.762 47.7852H0V182.996H424.762V47.7852Z" fill="white"/>
</mask>
<g mask="url(#mask0_76_3749)">
<path d="M217.895 120.998C215.922 120.998 214.364 122.556 214.364 124.529C214.364 126.502 215.922 128.06 217.895 128.06C219.868 128.06 221.426 126.502 221.426 124.529C221.426 122.556 219.868 120.998 217.895 120.998ZM111.658 110.821C123.808 110.821 134.297 103.344 134.297 91.8171C134.297 72.9166 107.296 78.5244 107.296 65.024C107.296 57.9623 114.254 53.2891 122.25 53.2891C127.027 53.2891 133.674 54.6392 132.843 59.3124L132.012 63.7779H137.827L139.074 57.7546C140.424 50.7968 130.247 47.7852 123.289 47.7852C111.658 47.7852 101.065 54.2238 101.065 65.2317C101.065 83.4053 128.17 77.4858 128.17 92.2324C128.17 100.125 121.212 105.11 112.592 105.11C106.154 105.11 99.092 103.033 100.234 97.321L101.169 92.3362H95.3534C94.8343 94.5171 94.5228 95.7633 94.3149 98.0478C92.3419 107.81 104.077 110.821 111.658 110.821ZM165.867 65.2317C152.366 65.2317 139.801 76.8628 139.801 91.9209C139.801 103.448 147.174 110.925 159.117 110.925C170.228 110.925 176.044 105.006 176.044 105.006L174.175 100.125C174.175 100.125 168.878 105.629 159.636 105.629C150.393 105.629 145.824 100.021 145.824 91.5056C145.824 79.6667 155.482 70.6318 165.348 70.6318C169.502 70.6318 175.836 72.1895 175.109 76.3434L174.694 78.5244H180.094L180.821 74.9934C182.275 67.5164 171.786 65.2317 165.867 65.2317ZM212.91 71.878L214.052 66.0625C213.326 65.8548 212.495 65.751 211.664 65.751C204.395 65.751 198.579 71.5665 195.568 77.6935H195.36C196.087 75.7205 197.125 70.8395 197.125 69.6972C197.125 67.3087 195.983 66.1664 192.764 66.1664H186.74L185.702 71.255H189.336C190.79 71.255 191.102 72.0857 190.894 73.1242L183.833 109.783H189.752L192.971 93.1671C194.84 83.0936 201.487 71.6704 210.833 71.6704C211.664 71.6704 212.287 71.7742 212.91 71.878ZM221.737 72.6051C221.737 72.9166 221.53 73.7474 221.426 74.1628L217.583 93.7901C217.272 95.6595 217.064 97.6325 217.064 99.294C217.064 106.356 220.699 110.925 229.215 110.925C239.081 110.925 245.622 103.76 248.01 99.8134H248.218C247.699 101.89 246.972 104.59 246.972 106.356C246.972 108.744 248.218 109.99 251.335 109.99H257.254L258.188 104.902H254.658C253.619 104.902 252.997 104.383 252.997 103.552C252.997 103.136 253.1 102.202 253.308 101.683L260.161 66.5818H254.45L250.608 86.3131C248.841 95.2439 240.742 105.317 230.98 105.317C225.061 105.317 223.399 101.994 223.399 97.7363C223.399 96.0748 223.607 94.3095 224.022 92.5439L227.865 72.1895C228.072 71.4627 228.176 70.6318 228.176 70.1127C228.176 67.6203 226.826 66.2702 223.71 66.2702H217.687L216.649 71.3589H220.283C221.218 71.3589 221.737 71.7742 221.737 72.6051ZM264.836 109.783H270.754L274.699 89.3246C276.361 80.4974 284.047 70.7356 293.498 70.7356C298.689 70.7356 300.35 73.9551 300.35 78.3167C300.35 79.9782 300.143 81.7436 299.727 83.613L294.64 109.887H300.558L304.504 89.3246C306.271 80.6015 314.162 70.8395 323.302 70.8395C328.597 70.8395 330.258 74.0589 330.258 78.4205C330.258 80.0821 329.947 81.8474 329.635 83.7168L325.69 103.967C325.482 104.694 325.378 105.421 325.378 105.94C325.378 108.537 326.728 109.783 329.843 109.783H335.868L336.802 104.694H333.168C332.13 104.694 331.608 104.279 331.608 103.344C331.608 103.033 331.816 102.306 331.92 101.89L335.764 82.0553C336.075 80.0821 336.387 78.2129 336.387 76.5513C336.387 69.5934 333.064 65.1279 324.963 65.1279C315.72 65.1279 309.075 72.0857 306.686 76.1358H306.479C306.271 69.2818 302.946 65.1279 295.263 65.1279C285.916 65.1279 279.478 72.2933 277.191 76.1358H276.984C277.505 74.2666 278.128 71.4627 278.128 69.905C278.128 67.5164 276.776 66.1664 273.661 66.1664H267.743L266.808 71.255H270.235C271.377 71.255 271.896 71.7742 271.896 72.6051C271.896 73.0204 271.792 73.9551 271.585 74.5781L264.836 109.783ZM155.794 176.454H157.351L156.313 181.854H152.678C149.251 181.854 148.42 181.023 147.693 176.869L145.201 162.538H121.108L113.008 176.869C110.723 181.023 109.581 181.854 105.946 181.854H101.792L102.831 176.454H104.388C105.738 176.454 106.465 176.142 107.296 174.584L137.62 120.998H144.059L153.613 174.792C153.924 176.246 154.443 176.454 155.794 176.454ZM144.474 157.138L140.631 135.433C140.216 132.63 139.905 127.541 139.905 127.541H139.697C139.697 127.541 137.412 132.526 135.854 135.433L123.704 157.138H144.474ZM174.798 120.998H168.878L167.84 126.087H171.475C172.513 126.087 173.032 126.502 173.032 127.437C173.032 128.06 172.928 128.476 172.721 129.306L163.686 176.038C163.478 176.765 163.374 177.492 163.374 178.011C163.374 180.608 164.828 181.854 167.84 181.854H173.863L174.798 176.765H171.371C170.332 176.765 169.709 176.35 169.709 175.415C169.709 175.104 169.917 174.377 170.021 173.961L179.056 127.126C179.263 126.191 179.367 125.36 179.367 124.633C179.367 122.141 177.913 120.998 174.798 120.998ZM195.983 120.998H190.064L189.025 126.087H192.66C193.698 126.087 194.217 126.502 194.217 127.437C194.217 128.06 194.114 128.476 193.906 129.306L184.871 176.038C184.663 176.765 184.56 177.492 184.56 178.011C184.56 180.608 186.013 181.854 189.025 181.854H195.048L195.983 176.765H192.348C191.31 176.765 190.687 176.35 190.687 175.415C190.687 175.104 190.894 174.377 190.998 173.961L200.033 127.126C200.241 126.191 200.344 125.36 200.344 124.633C200.552 122.141 198.994 120.998 195.983 120.998ZM213.741 138.341H207.822L206.783 143.43H210.418C211.456 143.43 211.976 143.845 211.976 144.78C211.976 145.403 211.872 145.818 211.664 146.649L205.952 175.727C205.745 176.869 205.641 177.492 205.641 178.115C205.641 180.711 207.095 181.958 210.106 181.958H216.13L217.064 176.869H213.429C212.391 176.869 211.768 176.454 211.768 175.519C211.768 175.207 211.976 174.481 212.079 174.065L217.791 144.676C217.999 143.741 218.103 142.807 218.103 141.976C218.31 139.484 216.857 138.341 213.741 138.341ZM258.188 176.765H261.822L260.888 181.854H255.385C252.062 181.854 250.712 180.504 250.712 178.427C250.712 177.285 251.231 174.584 251.751 173.027H251.543C251.647 173.027 246.245 182.892 235.238 182.892C228.695 182.892 222.568 179.465 222.568 171.573C222.568 158.384 238.666 155.061 251.958 155.061H254.762L254.969 153.918C255.281 152.361 255.385 151.218 255.385 149.764C255.385 144.676 252.477 142.184 246.453 142.184C243.546 142.184 237.42 142.91 236.797 146.026L236.379 148.83H230.565L231.291 144.676C232.434 139.068 241.157 137.303 247.076 137.303C256.838 137.303 261.095 142.184 261.095 149.349C261.095 151.011 260.888 152.776 260.576 154.645L256.838 173.546C256.734 174.169 256.527 175.104 256.527 175.519C256.631 176.142 257.046 176.765 258.188 176.765ZM253.723 159.734H251.335C243.961 159.734 228.591 160.772 228.591 170.742C228.591 175.415 231.811 178.115 236.483 178.115C245.518 178.115 252.166 167.938 253.412 161.707L253.723 159.734ZM306.79 175.415C306.79 175.104 306.894 174.377 306.998 173.961L310.84 154.334C311.151 152.465 311.463 150.492 311.463 148.934C311.463 141.768 307.725 137.199 299.208 137.199C289.134 137.199 282.489 144.364 280.101 148.311H279.893C280.413 146.234 281.139 143.534 281.139 141.768C281.139 139.484 279.79 138.134 276.672 138.134H270.754L269.819 143.222H273.246C274.388 143.222 274.907 143.741 274.907 144.572C274.907 144.988 274.803 145.922 274.596 146.545L267.847 181.646H273.765L277.713 160.98C279.478 152.257 287.681 142.599 297.547 142.599C303.569 142.599 305.337 146.026 305.337 150.284C305.337 151.945 305.025 153.711 304.714 155.372L300.766 175.831C300.662 176.558 300.558 177.285 300.558 177.804C300.558 180.4 301.908 181.646 305.025 181.646H311.047L311.982 176.558H308.348C307.206 176.765 306.686 176.246 306.79 175.415ZM342.617 137.303C329.116 137.303 316.55 148.934 316.55 163.992C316.55 175.519 323.925 182.996 335.868 182.996C346.98 182.996 352.794 177.077 352.794 177.077L350.925 172.196C350.925 172.196 345.63 177.7 336.387 177.7C327.143 177.7 322.575 172.092 322.575 163.577C322.575 151.738 332.233 142.703 342.097 142.703C346.253 142.703 352.587 144.261 351.86 148.414L351.445 150.595H356.844L357.571 147.064C359.024 139.587 348.537 137.303 342.617 137.303ZM400.566 152.984C400.566 156.411 399.318 160.253 399.318 160.253H366.087C366.087 160.253 365.672 162.019 365.672 164.096C365.672 171.677 370.448 177.596 379.587 177.596C387.481 177.596 393.711 172.3 393.711 172.3L395.58 177.18C395.58 177.18 388.415 182.892 379.172 182.892C367.333 182.892 359.546 175.519 359.546 164.511C359.546 150.284 370.24 137.199 384.987 137.199C395.58 137.303 400.566 143.949 400.566 152.984ZM394.438 152.568C394.438 145.507 390.284 142.184 384.571 142.184C377.407 142.184 370.24 146.961 367.125 155.58H394.126C394.23 155.58 394.438 154.126 394.438 152.568ZM418.531 130.449L420.192 133.564H418.427L416.87 130.241H415.416V133.564H413.755V125.049H417.077C418.739 125.049 419.777 126.087 419.777 127.645C419.777 128.995 418.946 129.722 418.219 129.93C418.219 130.033 418.323 130.137 418.531 130.449ZM418.219 127.749C418.219 126.918 417.7 126.399 416.87 126.399H415.416V129.202H416.766C417.596 129.202 418.219 128.579 418.219 127.749ZM424.761 129.41C424.761 133.98 421.127 137.614 416.558 137.614C411.987 137.614 408.457 133.98 408.457 129.41C408.457 124.841 412.091 121.206 416.558 121.206C421.023 121.206 424.761 124.841 424.761 129.41ZM423.099 129.41C423.099 125.672 420.296 122.764 416.558 122.764C412.818 122.764 410.118 125.672 410.118 129.41C410.118 133.149 412.922 136.056 416.558 136.056C420.192 136.056 423.099 133.149 423.099 129.41Z" fill="white"/>
<path d="M36.9903 114.351C40.9365 114.351 44.2596 111.132 44.2596 107.082C44.2596 103.032 41.0404 99.8125 36.9903 99.8125C32.9402 99.8125 29.7207 103.032 29.7207 107.082C29.7207 111.132 33.044 114.351 36.9903 114.351Z" fill="white"/>
<path d="M48.9326 103.764C48.9326 100.129 51.9442 97.1172 55.579 97.1172C59.2137 97.1172 62.2253 100.129 62.2253 103.764C62.2253 107.398 59.2137 110.41 55.579 110.41C51.9442 110.41 48.9326 107.398 48.9326 103.764Z" fill="white"/>
<path d="M73.3369 102.832C76.6602 102.832 79.4641 105.532 79.4641 108.959C79.4641 112.386 76.764 115.086 73.3369 115.086C69.91 115.086 67.21 112.386 67.21 108.959C67.21 105.532 70.0139 102.832 73.3369 102.832Z" fill="white"/>
<path d="M6.97852 137.819C6.97852 133.354 10.6132 129.615 15.1826 129.615C19.7519 129.615 23.3867 133.25 23.3867 137.819C23.3867 142.389 19.7519 146.023 15.1826 146.023C10.6132 145.919 6.97852 142.285 6.97852 137.819Z" fill="white"/>
<path d="M14.6631 119.031C14.6631 114.773 18.0901 111.242 22.4517 111.242C26.8133 111.242 30.2404 114.669 30.2404 119.031C30.2404 123.393 26.8133 126.82 22.4517 126.82C18.0901 126.82 14.6631 123.289 14.6631 119.031Z" fill="white"/>
<path d="M91.8231 121.927C91.8231 124.835 89.4345 127.223 86.5268 127.223C83.619 127.223 81.2305 124.835 81.2305 121.927C81.2305 119.019 83.619 116.631 86.5268 116.631C89.4345 116.631 91.8231 119.019 91.8231 121.927Z" fill="white"/>
<path d="M87.1494 138.45C87.1494 135.75 89.3303 133.465 92.1342 133.465C94.9381 133.465 97.119 135.646 97.119 138.45C97.119 141.254 94.9381 143.434 92.1342 143.434C89.3303 143.331 87.1494 141.15 87.1494 138.45Z" fill="white"/>
<path d="M85.5918 155.164C85.5918 152.879 87.461 151.01 89.7457 151.01C92.0302 151.01 93.8997 152.879 93.8997 155.164C93.8997 157.448 92.0302 159.318 89.7457 159.318C87.461 159.318 85.5918 157.448 85.5918 155.164Z" fill="white"/>
<path d="M77.5957 170.119C77.5957 168.146 79.2575 166.484 81.2305 166.484C83.2037 166.484 84.8653 168.146 84.8653 170.119C84.8653 172.092 83.2037 173.754 81.2305 173.754C79.1536 173.754 77.5957 172.092 77.5957 170.119Z" fill="white"/>
<path d="M64.3027 178.526C64.3027 176.657 65.8604 175.1 67.7299 175.1C69.599 175.1 71.1567 176.657 71.1567 178.526C71.1567 180.396 69.599 181.954 67.7299 181.954C65.8604 181.954 64.3027 180.396 64.3027 178.526Z" fill="white"/>
<path d="M39.7936 52.9753C40.1051 55.4677 38.4436 57.7524 35.9512 58.1678C33.459 58.5831 31.1743 56.8177 30.7589 54.3254C30.3434 51.833 32.109 49.5483 34.6011 49.1329C37.1974 48.7175 39.4821 50.483 39.7936 52.9753Z" fill="white"/>
<path d="M27.3329 52.5568C27.6444 54.8415 26.0867 57.0223 23.802 57.3339C21.5173 57.6454 19.3365 56.0877 19.025 53.803C18.7134 51.5183 20.2712 49.3375 22.5558 49.026C24.8405 48.7144 27.0214 50.2721 27.3329 52.5568Z" fill="white"/>
<path d="M15.9091 57.7575C16.2207 59.8344 14.7668 61.8075 12.6898 62.1191C10.6128 62.4306 8.63973 60.9768 8.32819 58.8998C8.01663 56.8228 9.47052 54.8497 11.5475 54.5381C13.7283 54.2266 15.5976 55.6805 15.9091 57.7575Z" fill="white"/>
<path d="M57.1378 70.3192C57.5531 73.1231 55.5801 75.7194 52.7762 76.1347C49.9723 76.5503 47.3761 74.577 46.9605 71.7731C46.5452 68.9692 48.5184 66.373 51.3223 65.9576C54.1262 65.5422 56.7225 67.5153 57.1378 70.3192Z" fill="white"/>
<path d="M44.9874 54.9465C47.6874 54.5311 50.1796 56.4003 50.4913 59.1004C50.9067 61.8005 49.0375 64.2928 46.3374 64.6044C43.6373 65.0198 41.1449 63.1505 40.8334 60.4505C40.5217 57.8542 42.2873 55.3619 44.9874 54.9465Z" fill="white"/>
<path d="M8.63968 67.1002C8.95125 68.9695 7.60121 70.7349 5.73193 70.9425C3.86265 71.2543 2.09722 69.9042 1.88953 68.0349C1.57798 66.1656 2.928 64.4002 4.79729 64.1925C6.56272 63.9848 8.32814 65.231 8.63968 67.1002Z" fill="white"/>
<path d="M2.72075 75.5087C4.48618 75.301 6.04392 76.4432 6.35546 78.2087C6.56317 79.9741 5.42082 81.5318 3.65539 81.8433C1.88997 82.0512 0.33224 80.805 0.0206937 79.0394C-0.187003 77.3779 1.05918 75.7163 2.72075 75.5087Z" fill="white"/>
<path d="M5.83653 86.4171C7.29042 86.2094 8.64045 87.2477 8.84814 88.7016C9.05585 90.1557 8.01735 91.5057 6.56346 91.7134C5.1096 91.9211 3.75956 90.8825 3.55185 89.4286C3.34417 87.9748 4.38264 86.6247 5.83653 86.4171Z" fill="white"/>
<path d="M10.7165 98.1543C10.5088 96.9084 11.4434 95.6622 12.6896 95.5583C13.9358 95.3504 15.182 96.2851 15.2858 97.5313C15.4935 98.7775 14.5589 100.024 13.3127 100.128C12.0665 100.231 10.9242 99.4005 10.7165 98.1543Z" fill="white"/>
<path d="M20.1666 102.202C19.9589 100.956 20.7897 99.9173 22.0359 99.7096C23.2821 99.5017 24.3206 100.333 24.5283 101.579C24.7359 102.825 23.905 103.864 22.659 104.071C21.5166 104.175 20.3743 103.344 20.1666 102.202Z" fill="white"/>
</g>
<path d="M461.929 223L456.619 223L456.619 2.32089e-07L461.929 0L461.929 223Z" fill="white"/>
</svg>
