<?xml version="1.0" encoding="UTF-8"?>
<svg id="Content" xmlns="http://www.w3.org/2000/svg" version="1.1" viewBox="0 0 1195.0596 979.8558">
  <!-- Generator: Adobe Illustrator 29.7.1, SVG Export Plug-In . SVG Version: 2.1.1 Build 8)  -->
  <defs>
    <style>
      .st0 {
        fill: #fff;
      }
    </style>
  </defs>
  <path class="st0" d="M273.8041,163.3668c-2.5408,0-4.6807,2.1394-4.6807,4.6802s2.1399,4.6805,4.6807,4.6805,4.6804-2.1398,4.6804-4.6805-2.1396-4.6802-4.6804-4.6802ZM264.4433,170.7215c-2.8083,0-4.9478,2.2733-4.9478,4.9479,0,2.8085,2.2732,4.9479,4.9478,4.9479,2.8081.1338,4.9478-2.1394,4.9478-4.9479s-2.2732-4.9479-4.9478-4.9479ZM297.3403,165.2388c-2.1396,0-3.8782,1.7384-3.8782,3.8782s1.7385,3.8778,3.8782,3.8778c2.1394.1338,3.8782-1.6046,3.8782-3.8778,0-2.1398-1.7388-3.8782-3.8782-3.8782ZM259.7626,182.6231c-2.8081,0-5.2151,2.4071-5.2151,5.2155s2.407,5.2152,5.2151,5.2152,5.2156-2.4071,5.2156-5.2152c0-2.9421-2.407-5.2155-5.2156-5.2155ZM293.7292,211.909c-1.2034,0-2.1396.9363-2.1396,2.1399s.9363,2.1396,2.1396,2.1396,2.1394-.9363,2.1394-2.1396-.936-2.1399-2.1394-2.1399ZM285.8393,161.6284c-2.3633,0-4.2793,1.9156-4.2793,4.2792s1.916,4.2792,4.2793,4.2792,4.2793-1.9159,4.2793-4.2792-1.916-4.2792-4.2793-4.2792ZM282.6301,137.1566c-.2673-1.7388-1.8723-2.9423-3.6106-2.6747s-2.9419,1.8722-2.6746,3.6105c.2676,1.7385,1.8723,2.8085,3.6108,2.6747,1.7383-.2676,2.9419-1.8722,2.6743-3.6105ZM283.9677,148.1219c1.8721-.2673,3.0757-1.8722,2.8081-3.7444-.2676-1.8721-1.8721-3.0757-3.7441-2.8081-1.8721.2673-3.0757,1.8722-2.8083,3.7444.2676,1.8721,2.0059,3.0757,3.7444,2.8081ZM258.1581,139.1622c1.3374-.2673,2.2734-1.4708,2.1396-2.8081-.2676-1.3374-1.4709-2.2732-2.8081-2.1398-1.3374.2676-2.2734,1.4711-2.1396,2.8085.1338,1.3372,1.4709,2.2732,2.8081,2.1394ZM273.1357,136.6217c1.6045-.2676,2.8081-1.7388,2.5408-3.3433-.2676-1.6046-1.7385-2.8083-3.3433-2.5408-1.6047.1338-2.6746,1.6047-2.5408,3.2095.2676,1.6045,1.7383,2.8081,3.3433,2.6746ZM265.3798,135.953c1.4707-.2676,2.5408-1.6049,2.2732-3.0757-.2673-1.4711-1.6047-2.5408-3.0757-2.2734-1.4709.2676-2.5408,1.6047-2.2732,3.0757.1335,1.4709,1.4707,2.5408,3.0757,2.2734ZM305.631,181.0186c2.0056,0,3.4768-1.605,3.4768-3.4771s-1.4712-3.4768-3.4768-3.4768c-1.8721,0-3.4771,1.4712-3.4771,3.4768,0,1.8721,1.4712,3.4771,3.4771,3.4771ZM264.176,163.233c-.8025.1338-1.3372.8024-1.2034,1.6047.1338.8022.8022,1.3372,1.6045,1.2036.8025-.1338,1.3374-.8025,1.2036-1.6049-.1338-.8025-.8022-1.3373-1.6047-1.2035ZM254.0129,149.4592c-.1338-1.0697-1.2036-1.8722-2.2734-1.7384s-1.8721,1.2036-1.7385,2.2732c.1338,1.0701,1.2036,1.8723,2.2734,1.7385,1.0698-.1335,1.8721-1.2036,1.7385-2.2733ZM255.7512,156.1453c-.1338-.9359-1.0698-1.6045-2.0059-1.4707s-1.6047,1.0696-1.4709,2.0059c.1338.936.936,1.6046,2.0059,1.4708.936-.1338,1.6047-1.0697,1.4709-2.006ZM302.4216,206.2926c-1.3372,0-2.2732,1.0701-2.2732,2.2736,0,1.3373,1.0698,2.2733,2.2732,2.2733,1.2036.1338,2.2732-.936,2.2732-2.2733s-1.0696-2.2736-2.2732-2.2736ZM258.1581,160.5587c-.8022.1335-1.3374.9359-1.2036,1.7383.1338.8022.8025,1.3374,1.7385,1.2036.8025-.1338,1.3372-.9363,1.2034-1.7385-.1338-.8024-.9358-1.3372-1.7383-1.2034ZM253.7458,144.7789c1.2034-.2676,2.0059-1.3373,1.8721-2.5408-.2673-1.2039-1.3372-2.006-2.5408-1.8722-1.2036.2673-2.0059,1.337-1.8721,2.5409.1335,1.2034,1.2034,2.0056,2.5408,1.8721ZM630.05,191.5828c0-.1201.0535-.3492.115-.6006.072-.3076.1521-.6497.1521-.8704l2.8093-14.3087c.2668-1.3373.4004-2.8081.4004-4.0116,0-5.3491-3.2097-9.0935-10.6973-9.0935-4.5476,0-11.2339,1.3373-12.0352,5.6165l-.5366,3.2095h4.4141l.2668-2.1396c.4006-2.4071,5.0818-2.9419,7.3542-2.9419,4.5474,0,6.8198,1.8721,6.8198,5.7502,0,.9521-.0828,1.6555-.1841,2.5032v.0034c-.0269.2219-.0535.4536-.083.7029l-.1333.8021h-2.1392c-10.1631,0-22.3318,2.5408-22.4653,12.1691,0,6.0176,4.6812,8.6921,9.6265,8.6921,8.4248,0,12.4385-7.4885,12.4385-7.4885h.1335c-.4006,1.2035-.8037,3.3433-.8037,4.1456,0,1.7384,1.0706,2.6743,3.6101,2.6743h4.2805l.6677-3.8781h-2.8066c-.9373,0-1.2043-.4011-1.2043-.936ZM627.7778,181.286c-.9375,4.6804-6.1526,12.4366-12.9727,12.4366-3.6101,0-6.0161-2.1398-6.0161-5.483,0-7.6223,11.7654-8.4246,17.3838-8.4246h1.8718l-.2668,1.4709ZM600.6313,150.2613c-1.4714,0-2.6758,1.2036-2.6758,2.6743s1.2043,2.6746,2.6758,2.6746c1.4685,0,2.6729-1.2034,2.6729-2.6746s-1.2043-2.6743-2.6729-2.6743ZM597.4213,163.3668h-4.4138l-.801,3.8781h2.8064c.8037,0,1.2043.2672,1.2043.9359,0,.5349,0,.8025-.1335,1.4712l-4.4141,22.1982c-.0747.5288-.1497.9296-.2004,1.2024-.04.2092-.0667.3442-.0667.4025,0,2.0057,1.2043,2.9419,3.4768,2.9419h4.5476l.6675-3.8781h-2.8064c-.8037,0-1.2043-.2673-1.2043-.936,0-.0554.0239-.2026.0508-.3751.0374-.2438.0828-.5381.0828-.6948l4.4141-22.3322c.1333-.6687.2671-1.4711.2671-2.0059,0-2.006-1.0708-2.8081-3.4771-2.8081ZM668.2971,191.7166c0-.0554.0212-.2026.0481-.3749.04-.244.0854-.5383.0854-.6951l2.9399-14.9773c.2698-1.4708.4033-2.9419.4033-4.1454,0-5.3491-2.8093-8.8259-9.3623-8.8259-7.7544,0-12.7026,5.4827-14.5745,8.5583h-.1362l.1016-.4019c.3845-1.5269.8357-3.3181.8357-4.5459,0-1.7385-1.0708-2.8081-3.4766-2.8081h-4.4141l-.6677,3.8781h2.6758c.801,0,1.2014.401,1.2014,1.0697,0,.2673,0,.936-.1333,1.4711l-5.0818,26.6113h4.4141l3.0764-15.7797c1.335-6.5525,7.6208-13.9076,15.1113-13.9076,4.5447,0,5.8826,2.5409,5.8826,5.884,0,1.2035-.1335,2.5409-.4006,3.8781l-3.0762,15.5122c-.1335.5349-.1335,1.0698-.1335,1.4711,0,2.006,1.0681,2.9419,3.4768,2.9419h4.5476l.6675-3.8781h-2.8091c-.801,0-1.2017-.2673-1.2017-.936ZM749.7338,150.2615c-2.9402,0-5.3486,2.4071-5.3486,5.3489s2.2749,5.3492,5.3486,5.3492c3.0762,0,5.3511-2.407,5.3511-5.3492s-2.4084-5.3489-5.3511-5.3489ZM749.7338,160.0235c-2.406,0-4.2778-1.8722-4.2778-4.4131,0-2.407,1.7383-4.4128,4.2778-4.4128,2.4084,0,4.2803,1.8721,4.2803,4.4128,0,2.4071-1.8718,4.4131-4.2803,4.4131ZM583.915,150.2615h-4.5476l-.801,3.8782h2.6731c.8037,0,1.2043.2673,1.2043.9359,0,.5348,0,.8024-.1335,1.4711l-6.8201,35.571c-.1335.5349-.2671,1.2035-.1335,1.3373,0,2.006,1.2043,2.9419,3.4768,2.9419h4.5476l.6675-3.8781h-2.8091c-.8013,0-1.2017-.2673-1.2017-.936,0-.0554.0212-.2026.0481-.3749.04-.2438.0854-.5383.0854-.6947l6.9534-35.5714c.1335-.6686.2671-1.337.2671-1.8722,0-2.0056-1.0708-2.8081-3.4768-2.8081ZM750.7538,156.0284c-.0508-.0502-.0828-.0835-.0828-.1504.5339-.1338,1.0708-.6686,1.0708-1.4709,0-1.0698-.6704-1.7384-1.7412-1.7384h-2.1389v5.6165h1.0708v-2.1398h.9346l1.0708,2.1398h1.2043l-1.2043-2.006c-.0667-.1338-.1333-.2004-.1841-.2507ZM749.8671,155.4768h-.9346v-1.8722h.9346c.5369,0,.9375.4014.9375.9363s-.4006.9359-.9375.9359ZM695.7104,162.6981c-10.2966,0-19.7922,8.8259-19.7922,20.3264,0,8.8259,5.6157,14.4424,14.7107,14.4424,8.5583,0,12.9697-4.5466,12.9697-4.5466l-1.4685-3.7444s-4.2805,4.1454-11.1006,4.1454-10.5637-4.2792-10.5637-10.6981c0-9.0933,7.354-15.9131,14.8442-15.9131,3.207,0,8.0215,1.2034,7.4875,4.4128l-.2671,1.6046h4.1443l.5369-2.6746c1.0681-5.6165-7.0896-7.3549-11.5012-7.3549ZM727.936,162.6981c-11.2314,0-19.3892,9.8956-19.3892,20.9951,0,8.2908,6.0188,13.9072,14.9778,13.9072,7.0869,0,12.5691-4.4128,12.5691-4.4128l-1.4712-3.7444s-4.812,4.0118-10.8311,4.0118c-6.9534,0-10.5637-4.5468-10.5637-10.297,0-1.6045.2671-2.9419.2671-2.9419h25.408s.9348-2.9419.9348-5.4827c0-6.9539-3.7439-12.0354-11.9016-12.0354ZM735.0256,176.6055h-20.5935c2.2725-6.5526,7.7546-10.1631,13.2368-10.1631,4.2805,0,7.4902,2.5408,7.4902,7.8896,0,1.2039-.1335,2.2734-.1335,2.2734ZM402.3144,172.1927h-.1338c.6687-1.4712,1.3374-5.2155,1.3374-6.0176,0-1.7386-.8025-2.6746-3.3433-2.6746h-4.5464l-.8025,3.8781h2.8083c1.2036,0,1.3369.6686,1.2036,1.4708l-5.2156,27.6813h4.4131l2.407-12.704c1.4712-7.6222,6.5527-16.3147,13.6399-16.3147.3767,0,.7112.0425,1.0032.0796.2261.0289.4265.0542.6018.0542l.802-4.4128c-.5347-.1338-1.2034-.1338-1.8721-.1338-5.6165,0-10.0293,4.4128-12.3027,9.0935ZM347.3537,149.4592c-8.9597,0-16.9832,4.9479-16.9832,13.3727,0,7.3247,5.7124,9.5303,11.1199,11.6185,4.8601,1.8767,9.4739,3.6583,9.4739,8.9752,0,5.884-5.3491,9.762-11.9016,9.762-4.948,0-10.1633-1.4709-9.3608-5.8838l.6687-3.8782h-4.4131l-.5347,4.2792c-1.4712,7.3549,7.4885,9.6283,13.2388,9.6283,9.2271,0,17.2505-5.6165,17.2505-14.4424,0-7.7415-6.0283-10.042-11.5615-12.1536-4.6941-1.7913-9.0322-3.4469-9.0322-8.1729,0-5.3489,5.2153-8.8259,11.3667-8.8259,3.6106,0,8.6921.9363,8.0234,4.5468l-.6685,3.3433h4.4128l.9363-4.5468c1.0698-5.3491-6.6865-7.6224-12.0354-7.6224ZM307.9042,196.2631c-1.4709,0-2.6746,1.2037-2.6746,2.6747s1.2036,2.6746,2.6746,2.6746,2.6748-1.2036,2.6748-2.6746-1.2036-2.6747-2.6748-2.6747ZM567.5993,150.2615h-4.5447l-.804,3.8782h2.8093c.801,0,1.2041.2673,1.2041.9359,0,.5348,0,.8024-.1362,1.4711l-6.8198,35.571c-.0562.2283-.0881.4807-.1174.7058-.0403.302-.0723.5549-.1497.6315,0,2.006,1.2043,2.9419,3.4768,2.9419h4.5476l.6675-3.8781h-2.8064c-.804,0-1.2043-.2673-1.2043-.936,0-.0554.0239-.2026.0508-.3749.0374-.2438.0828-.5383.0828-.6947l6.9534-35.5714c.1335-.6686.2671-1.337.2671-1.8722,0-2.0056-1.0681-2.8081-3.4768-2.8081ZM309.3757,185.0302c-1.7385,0-3.2095,1.4711-3.2095,3.2094s1.4709,3.2095,3.2095,3.2095c1.7383-.1338,3.2095-1.4707,3.2095-3.2095s-1.4712-3.2094-3.2095-3.2094ZM379.8491,162.6981c-10.2969,0-19.7915,8.8259-19.7915,20.3264,0,8.8259,5.6165,14.4424,14.71,14.4424,8.5583,0,12.9712-4.5466,12.9712-4.5466l-1.4709-3.7444s-4.2793,4.1454-11.0994,4.1454-10.5642-4.2792-10.5642-10.6981c0-9.0933,7.355-15.9131,14.8435-15.9131,3.2095,0,8.0234,1.2034,7.4888,4.4128l-.2673,1.6046h4.1453l.5349-2.6746c1.0698-5.6165-7.0872-7.3549-11.5002-7.3549ZM551.6869,191.1818l-7.2207-40.9203h-4.948l-23.1355,40.7865c-.6677,1.3373-1.2043,1.4708-2.2725,1.4708h-1.2043l-.6677,4.0118h3.0762c2.6731,0,3.6104-.6686,5.3489-3.8781l6.1497-10.9655h18.321l1.8718,10.9655c.6704,3.2095,1.2043,3.8781,3.8774,3.8781h2.8091l.8037-4.1454h-1.2041c-1.0708,0-1.4714-.1338-1.605-1.2035ZM528.9545,177.8092l9.2261-16.5822c1.2041-2.1395,2.9426-6.0176,2.9426-6.0176h.1335s.2671,3.8781.5339,6.0176l2.9426,16.5822h-15.7788ZM506.2194,191.5828c0-.0552.0242-.2026.0508-.3749.0374-.2438.0828-.5383.0828-.6947l2.9426-15.1111c.2671-1.4712.4006-2.9421.4006-4.1458,0-5.3489-2.5396-8.6921-8.6919-8.6921-6.9536,0-12.0352,5.3491-13.9072,8.4248h-.1338c-.1335-5.2153-2.6743-8.4248-8.5583-8.4248-7.0876,0-12.0354,5.4827-13.7739,8.4248h-.1338c.4014-1.3372.8025-3.4771.8025-4.6804,0-1.7385-1.0698-2.8081-3.4771-2.8081h-4.4126l-.6687,3.8781h2.6743c.8025,0,1.2036.401,1.2036,1.0697,0,.2673,0,.936-.1335,1.4711l-5.0815,26.4775h4.4128l3.0757-15.5121c1.2034-6.6863,7.0872-14.1748,14.3086-14.1748,4.012,0,5.2153,2.407,5.2153,5.75,0,1.2036-.1335,2.5408-.4011,4.0117l-3.8782,19.9252h4.4128l3.0757-15.6459c1.3374-6.5525,7.3552-14.041,14.3076-14.041,4.0134,0,5.2178,2.407,5.2178,5.75,0,1.2036-.1362,2.5408-.4033,4.0117l-3.0762,15.5122c-.1333.5349-.1333,1.0701-.1333,1.4711,0,2.006,1.0708,2.9419,3.4766,2.9419h4.5476l.6702-3.8781h-2.8091c-.8037,0-1.2043-.2673-1.2043-.936ZM451.9272,163.5003h-4.4131l-2.9421,15.2448c-1.3372,6.8199-7.4885,14.4425-14.9773,14.4425-4.4131,0-5.7502-2.4071-5.7502-5.7504,0-1.3373.1338-2.6743.4014-4.0116l2.9419-15.5125c.1338-.6683.1338-1.2035.1338-1.6045,0-2.006-1.0701-2.9419-3.4771-2.9419h-4.5466l-.8022,3.8781h2.8081c.8022,0,1.2036.401,1.2036.9359,0,.1338-.0334.3685-.0669.6025-.0334.2339-.0669.4675-.0669.6011l-2.9419,14.9773c-.2676,1.4709-.4011,2.9421-.2676,4.2791,0,5.3492,2.6748,8.8259,9.2271,8.8259,7.4888,0,12.5703-5.4827,14.3088-8.5583h.1338l-.1013.403c-.3843,1.5266-.835,3.3174-.835,4.5449,0,1.8722.9363,2.8083,3.3433,2.8083h4.5466l.6687-3.8781h-2.6746c-.8025,0-1.2036-.4014-1.2036-1.0701,0-.4011,0-1.0697.1338-1.4707l5.2156-26.7454Z"/>
  <g>
    <path class="st0" d="M171.0522,633.4014l6.459,9.8584h-9.3828l-7.9551-11.2188v-9.6553h48.6152v11.0156h-37.7363Z"/>
    <path class="st0" d="M195.6655,613.3389v-10.2666c3.332-.6797,5.4395-2.6514,5.4395-7.2744,0-6.46-5.0996-9.6562-15.0264-9.8594,3.5352,2.2441,5.915,5.7793,5.915,11.627,0,9.3828-5.8477,16.25-15.7061,16.25-10.0635,0-16.8623-7.207-16.8623-18.834,0-13.3945,9.043-19.8535,23.0488-19.8535h2.1758c15.9111,0,24.8184,7.2744,24.8184,20.3291,0,10.5391-5.0312,16.7939-13.8027,17.8818ZM176.4916,586.8223c-5.6436,0-9.1113,3.3311-9.1113,8.2949,0,4.8271,3.5352,8.0234,8.6348,8.0234s8.6348-3.1279,8.6348-8.0234c0-4.9639-3.3984-8.2949-8.1582-8.2949Z"/>
    <path class="st0" d="M185.7377,568.3243v-17.4062h7.8203v17.4062h-7.8203Z"/>
    <path class="st0" d="M207.02,547.4483l-18.834-17.8145c-4.9639-4.6914-9.2471-7.6836-13.667-7.6836-4.0117,0-6.5947,2.2441-6.5947,6.459,0,4.2842,2.5156,7.0039,8.9072,7.752v9.9941c-11.2188-.543-17.3379-7.3428-17.3379-18.2217,0-10.7432,5.9824-16.8623,14.7539-16.8623,6.459,0,11.7627,3.7402,17.2021,9.3828l8.9756,9.1797v-18.9023h8.3633v36.7168h-1.7686Z"/>
    <path class="st0" d="M185.6703,505.2198h-2.3115c-14.959,0-23.8652-8.7031-23.8652-21.2129s8.5664-21.1465,23.6611-21.1465h2.2432c14.8906,0,24.1387,8.0918,24.1387,21.2139,0,12.9189-8.9756,21.1455-23.8662,21.1455ZM185.4662,473.8077h-2.1758c-9.791,0-15.2988,3.3994-15.2988,10.1309,0,6.7988,5.2363,10.2666,15.2988,10.2666h2.3125c10.1982,0,15.2979-3.6035,15.2979-10.4033,0-6.8672-5.2354-9.9941-15.4346-9.9941Z"/>
    <path class="st0" d="M193.558,442.5245v-10.5391c4.3516-.4756,7.9551-2.3105,7.9551-9.5186,0-4.8271-2.6523-8.0225-6.46-8.0225-3.876,0-5.2354,2.0391-6.3232,9.1787-1.6318,12.4424-5.3711,17.542-14.7539,17.542-8.2959,0-14.4824-6.9355-14.4824-17.6777,0-10.9473,4.8945-17.3389,14.5498-18.2227v10.1309c-4.4189.6797-6.459,3.2637-6.459,8.0918s2.2432,7.2754,5.5068,7.2754c3.4678,0,5.0996-1.5645,6.1875-9.0439,1.4961-11.7627,4.6914-17.8135,14.7549-17.8135,8.6348,0,15.5029,7.0703,15.5029,18.5615,0,13.3271-6.2559,19.4463-15.9785,20.0576Z"/>
    <path class="st0" d="M160.1733,395.9454v-31.6846h8.5664v20.7373h11.3555v-16.5898h8.0234v16.5898h12.1025v-21.8252h8.5674v32.7725h-48.6152Z"/>
    <path class="st0" d="M160.1733,355.4864v-16.7939c0-11.8311,5.2354-18.5625,15.502-18.5625h.2715c10.2676,0,15.1631,7.1387,15.1631,18.2227v6.1865h17.6787v10.9473h-48.6152ZM183.4272,338.9639c0-5.3711-2.584-8.2266-7.4121-8.2266h-.2715c-5.168,0-7.207,2.9912-7.207,8.2266v5.5752h14.8906v-5.5752Z"/>
    <path class="st0" d="M207.02,302.2432l-18.834-17.8135c-4.9639-4.6924-9.2471-7.6836-13.667-7.6836-4.0117,0-6.5947,2.2441-6.5947,6.46,0,4.2832,2.5156,7.0029,8.9072,7.751v9.9951c-11.2188-.5449-17.3379-7.3438-17.3379-18.2227,0-10.7422,5.9824-16.8623,14.7539-16.8623,6.459,0,11.7627,3.7393,17.2021,9.3838l8.9756,9.1787v-18.9023h8.3633v36.7158h-1.7686Z"/>
    <path class="st0" d="M185.6703,260.0167h-2.3115c-14.959,0-23.8652-8.7031-23.8652-21.2148s8.5664-21.1455,23.6611-21.1455h2.2432c14.8906,0,24.1387,8.0908,24.1387,21.2139,0,12.9189-8.9756,21.1465-23.8662,21.1465ZM185.4662,228.6026h-2.1758c-9.791,0-15.2988,3.4004-15.2988,10.1318,0,6.7988,5.2363,10.2666,15.2988,10.2666h2.3125c10.1982,0,15.2979-3.6035,15.2979-10.4023,0-6.8672-5.2354-9.9961-15.4346-9.9961Z"/>
    <path class="st0" d="M207.02,213.7764l-18.834-17.8145c-4.9639-4.6914-9.2471-7.6836-13.667-7.6836-4.0117,0-6.5947,2.2441-6.5947,6.459,0,4.2842,2.5156,7.0039,8.9072,7.752v9.9941c-11.2188-.543-17.3379-7.3428-17.3379-18.2217,0-10.7432,5.9824-16.8623,14.7539-16.8623,6.459,0,11.7627,3.7402,17.2021,9.3828l8.9756,9.1797v-18.9023h8.3633v36.7168h-1.7686Z"/>
    <path class="st0" d="M186.35,171.6163h-1.2236c-16.4541,0-25.6328-8.9062-25.6328-20.8057,0-9.6553,4.5547-15.7744,13.4619-16.8623v10.1992c-3.1953.6797-5.167,2.3115-5.167,6.5273,0,6.0508,5.3027,9.791,15.2979,10.0625-3.6035-2.2432-6.0518-5.915-6.0518-11.7627,0-9.1787,5.9844-16.0459,15.7754-16.0459,9.9941,0,16.7266,7.1387,16.7266,18.6973,0,14.6875-9.9277,19.9902-23.1865,19.9902ZM192.9457,143.7393c-5.0996,0-8.6357,3.0596-8.6357,8.0234,0,4.8955,3.4688,8.2949,8.2959,8.2949,5.5752,0,8.9746-3.3994,8.9746-8.2949,0-4.8281-3.5352-8.0234-8.6348-8.0234Z"/>
  </g>
  <g>
    <polygon class="st0" points="461.5326 774.4825 477.3881 774.4825 469.5112 746.712 461.5326 774.4825"/>
    <polygon class="st0" points="814.4897 774.4825 830.3451 774.4825 822.4682 746.712 814.4897 774.4825"/>
    <path class="st0" d="M1041.0087,716.3128h.1833v-12.0024c0-8.3562-6.7739-15.1306-15.1301-15.1306H156.1303c-8.3564,0-15.1304,6.7744-15.1304,15.1306v12.9133c2.6018,27.5066,25.416,48.0996,53.3711,52.7583-27.9551,4.6594-50.7693,25.2522-53.3711,52.7588v11.4221c0,8.3562,6.7739,15.1301,15.1304,15.1301h869.9316c8.3562,0,15.1301-6.7739,15.1301-15.1301v-10.5112h-.1833c-2.1721-27.9685-25.2183-48.9583-53.4854-53.6697,28.2671-4.7109,51.3132-25.7007,53.4854-53.6692ZM301.768,803.3634c-20.1963,0-30.4971-8.4824-31.1025-24.1348h19.6914c.5049,5.1504,2.8281,9.3916,11.4111,9.3916,5.958,0,9.29-2.9287,9.29-7.1699,0-4.4434-2.7266-5.6553-11.4102-6.9678-20.3984-2.4238-27.2656-8.4824-27.2656-23.0244,0-13.0264,10.7041-22.5195,27.9727-22.5195,17.3682,0,27.1641,7.2715,28.4766,22.5195h-19.1875c-.7061-5.1504-3.6348-7.7754-9.2891-7.7754-5.5547,0-8.3828,2.5244-8.3828,6.1602,0,4.0391,2.2227,5.8564,11.209,7.0684,18.2783,2.0195,27.6699,6.7656,27.6699,22.418,0,13.2285-10.502,24.0342-29.083,24.0342ZM415.9838,802.1514h-20.7012v-28.4775h-23.7314v28.4775h-20.8018v-72.2021h20.8018v27.5674h23.7314v-27.5674h20.7012v72.2021ZM485.2641,802.1514l-3.8369-13.4307h-23.9336l-3.8369,13.4307h-19.2881l23.125-72.2021h26.7607l22.9229,72.2021h-21.9131ZM590.0893,802.1514h-19.9941l-26.3574-45.3408v45.3408h-18.1758v-72.2021h23.3262l23.125,40.6953v-40.6953h18.0762v72.2021ZM683.5043,771.1495c0,18.3789-12.0166,32.2139-35.3438,32.2139-24.5391,0-37.8682-15.248-37.8682-36.8584v-.8086c0-22.0137,16.1562-36.8584,37.8682-36.8584,17.0654,0,32.2139,7.7754,33.627,26.5586h-20.499c-1.0098-6.7656-5.3525-10.3008-13.0273-10.3008-10.1992,0-16.3594,7.877-16.3594,20.9043v.8076c0,11.7139,4.3428,20.8018,16.8652,20.8018,10.0977,0,13.9355-5.1494,14.3389-10.9053h-13.5322v-14.4404h33.9307v8.8857ZM768.9408,802.1514h-20.7012v-28.4775h-23.7314v28.4775h-20.8018v-72.2021h20.8018v27.5674h23.7314v-27.5674h20.7012v72.2021ZM838.2211,802.1514l-3.8369-13.4307h-23.9336l-3.8369,13.4307h-19.2881l23.125-72.2021h26.7607l22.9229,72.2021h-21.9131ZM899.8266,802.1514h-20.9033v-72.2021h20.9033v72.2021Z"/>
  </g>
  <g>
    <path class="st0" d="M260.9408,245.6339h44.2148c29.5303,0,45.9531,12,45.9531,35.8457v.6309c0,16.1074-8.5273,25.1094-20.3711,29.6885l27.0039,46.7422h-34.1094l-22.8984-40.4258h-7.5791v40.4258h-32.2139v-112.9072ZM303.5776,297.1124c10.8955,0,16.2646-4.5791,16.2646-13.7383v-.6309c0-9.1602-5.6846-12.791-16.1074-12.791h-10.5801v27.1602h10.4229Z"/>
    <path class="st0" d="M360.1108,318.2725v-1.2627c0-26.5293,19.7393-43.2686,44.6895-43.2686,22.582,0,42.0049,12.9492,42.0049,42.6367v7.4219h-58.1123c.79,10.8965,7.1064,17.2129,17.2129,17.2129,9.3164,0,13.2646-4.2637,14.3701-9.791h26.5293c-2.5264,18.6348-16.8965,29.2148-41.8467,29.2148-25.8984,0-44.8477-15.1602-44.8477-42.1641ZM419.3285,307.8507c-.4736-9.9482-5.3691-15.4746-14.5283-15.4746-8.5273,0-14.3701,5.5264-15.791,15.4746h30.3193Z"/>
    <path class="st0" d="M454.3852,358.5411h28.1084c1.2637,6.001,4.8955,10.7383,15.1602,10.7383,12.4746,0,17.5273-7.1064,17.5273-17.3701v-12.6338c-4.2637,7.8955-13.2637,15.1592-25.582,15.1592-19.2646,0-35.0566-14.2109-35.0566-39.6357v-1.2627c0-24.3184,15.6338-39.7949,35.0566-39.7949,13.1074,0,20.8457,5.5273,25.582,13.8965v-11.6855h28.2676v75.6406c0,24.6348-16.2656,37.584-45.7949,37.584-28.1094,0-41.0586-11.8438-43.2686-30.6357ZM515.9711,314.6417v-1.1055c0-11.3701-5.8428-18.6348-16.2646-18.6348-10.5801,0-16.2656,7.4219-16.2656,18.793v1.2627c0,11.3701,6.001,18.6338,16.1074,18.6338s16.4229-7.2637,16.4229-18.9492Z"/>
    <path class="st0" d="M559.5551,253.5284c0-8.3691,6.6318-14.6855,15.4756-14.6855s15.6328,6.3164,15.6328,14.6855-6.79,14.5283-15.6328,14.5283-15.4756-6.1592-15.4756-14.5283ZM560.976,275.9522h28.2666v82.5889h-28.2666v-82.5889Z"/>
    <path class="st0" d="M602.3491,318.2725v-1.2627c0-26.5293,19.7402-43.2686,45.3223-43.2686,25.4238,0,45.0049,16.2656,45.0049,42.4785v1.2637c0,26.8457-19.7393,42.9531-45.1631,42.9531s-45.1641-15.4766-45.1641-42.1641ZM663.936,317.7999v-1.2637c0-13.8965-5.5273-21.6348-16.2646-21.6348-10.5801,0-16.4238,7.4219-16.4238,21.3184v1.2637c0,14.2129,5.5273,21.9502,16.4238,21.9502,10.5801,0,16.2646-7.8955,16.2646-21.6338Z"/>
    <path class="st0" d="M704.9936,275.9522h28.2666v13.2656c4.4219-8.5273,13.4229-15.4766,27.1611-15.4766,15.9492,0,27.0039,9.9492,27.0039,31.1094v53.6904h-28.2676v-48.0059c0-9.3164-3.6309-13.8955-11.8438-13.8955-8.3691,0-14.0537,5.0527-14.0537,15.6328v46.2686h-28.2666v-82.5889Z"/>
    <path class="st0" d="M798.7944,335.6436c0-19.4238,16.4238-27.0029,43.9004-27.0029h7.8955v-1.8955c0-7.8955-1.8955-13.1064-10.8955-13.1064-7.7383,0-10.5811,4.5791-11.2129,9.79h-26.5293c1.2637-19.8965,16.8965-29.6875,39.4785-29.6875,22.7402,0,37.2676,9.3174,37.2676,31.2676v53.5322h-27.4766v-9.6328c-3.9482,6.001-11.2129,11.5283-24.4766,11.5283-14.8438,0-27.9512-7.2646-27.9512-24.793ZM850.5903,329.6436v-5.0537h-7.4219c-11.3701,0-16.4229,2.21-16.4229,9.001,0,4.7373,3.1582,7.7383,9.79,7.7383,8.0537,0,14.0547-4.5801,14.0547-11.6855Z"/>
    <path class="st0" d="M895.5951,239.6319h28.1074v118.9092h-28.1074v-118.9092Z"/>
    <path class="st0" d="M253.6762,465.71h30.7939c.7891,8.0537,4.4209,14.6865,17.8438,14.6865,9.3164,0,14.5273-4.5791,14.5273-11.2119,0-6.9482-4.2637-8.8438-17.8438-10.8965-31.8984-3.7891-42.6367-13.2637-42.6367-36.0039,0-20.3711,16.7383-35.2148,43.7422-35.2148,27.1611,0,42.4785,11.3701,44.5312,35.2148h-30.0039c-1.1055-8.0537-5.6836-12.1592-14.5273-12.1592-8.6855,0-13.1074,3.9482-13.1074,9.6328,0,6.3164,3.4746,9.1592,17.5293,11.0537,28.582,3.1582,43.2676,10.5801,43.2676,35.0566,0,20.6865-16.4229,37.584-45.4785,37.584-31.583,0-47.6895-13.2656-48.6377-37.7422Z"/>
    <path class="st0" d="M356.6342,461.2882v-1.2627c0-27.4775,19.7383-43.2686,44.0576-43.2686,20.2129,0,38.8467,8.8438,40.4258,33.9512h-26.5303c-1.2627-7.7373-5.0527-12.001-13.2637-12.001-9.9492,0-15.792,7.1064-15.792,21.0029v1.2637c0,14.3691,5.5273,21.791,16.2646,21.791,7.8965,0,13.4238-4.7373,14.3711-13.7383h25.4238c-.7891,20.8447-14.8438,34.4258-41.5312,34.4258-24.6348,0-43.4258-14.3711-43.4258-42.1641Z"/>
    <path class="st0" d="M453.1186,418.9678h28.2666v16.4238c5.2119-12.3184,13.8965-17.6875,26.6875-17.5293v26.3721c-17.2119-.4736-26.6875,4.8955-26.6875,18.1592v39.1631h-28.2666v-82.5889Z"/>
    <path class="st0" d="M520.0737,472.8165v-53.8486h28.2666v49.2695c0,9.3164,3.6318,13.8965,11.6855,13.8965,8.5273,0,14.0537-5.0537,14.0537-15.6338v-47.5322h28.2676v82.5889h-28.2676v-12.791c-4.4219,8.5273-12.4746,14.6865-26.2129,14.6865-15.9492,0-27.793-9.791-27.793-30.6357Z"/>
    <path class="st0" d="M619.0854,418.9678h28.2656v12.6328c4.4219-7.8945,13.1074-14.8438,25.8984-14.8438,10.8955,0,18.4746,4.7383,22.4238,13.7383,7.1055-9.6328,16.8965-13.7383,27.3184-13.7383,15.6328,0,27.0029,10.1074,27.0029,30.793v54.0068h-28.2666v-49.2686c0-8.3691-4.1055-12.4756-10.5801-12.4756-7.5801,0-12.6328,4.8955-12.6328,13.8965v47.8477h-27.9512v-49.2686c0-8.3691-4.1055-12.4756-10.5801-12.4756-7.5801,0-12.6328,4.8955-12.6328,13.8965v47.8477h-28.2656v-82.5889Z"/>
    <path class="st0" d="M254.9399,588.8292v-1.2637c0-34.4258,25.2666-57.6387,59.2178-57.6387,26.6875,0,50.374,12.1592,52.584,41.5312h-32.0557c-1.5791-10.5801-8.3701-16.1074-20.3711-16.1074-15.9492,0-25.5811,12.3174-25.5811,32.6885v1.2627c0,18.3184,6.7891,32.5303,26.3711,32.5303,15.791,0,21.791-8.0537,22.4238-17.0537h-21.1602v-22.582h53.0586v13.8965c0,28.7402-18.792,50.374-55.2695,50.374-38.373,0-59.2178-23.8447-59.2178-57.6377Z"/>
    <path class="st0" d="M377.4819,621.6749c0-19.4238,16.4229-27.0039,43.8994-27.0039h7.8955v-1.8945c0-7.8965-1.8945-13.1074-10.8955-13.1074-7.7373,0-10.5811,4.5801-11.2119,9.791h-26.5293c1.2637-19.8965,16.8965-29.6875,39.4785-29.6875,22.7393,0,37.2676,9.3164,37.2676,31.2666v53.5322h-27.4775v-9.6328c-3.9482,6.002-11.2119,11.5283-24.4766,11.5283-14.8438,0-27.9502-7.2646-27.9502-24.792ZM429.2768,615.6739v-5.0537h-7.4219c-11.3691,0-16.4229,2.2109-16.4229,9.002,0,4.7363,3.1582,7.7373,9.79,7.7373,8.0547,0,14.0547-4.5791,14.0547-11.6855Z"/>
    <path class="st0" d="M476.81,618.0421v-36.793h-9.9492v-19.2656h9.9492v-17.2129h28.2656v17.2129h16.2656v19.2656h-16.2656v34.1094c0,6,3.001,8.6846,8.3701,8.6846,3.1582,0,5.5264-.4736,8.0537-1.4209v21.4766c-3.6328.9473-9.002,2.3682-15.6338,2.3682-18.6338,0-29.0557-9.001-29.0557-28.4248Z"/>
    <path class="st0" d="M534.4477,525.6632h28.2666v49.585c4.4219-8.5273,13.4219-15.4756,27.1602-15.4756,15.9492,0,27.0039,9.9482,27.0039,31.1094v53.6895h-28.2666v-48.0049c0-9.3174-3.6318-13.8965-11.8438-13.8965-8.3691,0-14.0537,5.0537-14.0537,15.6338v46.2676h-28.2666v-118.9082Z"/>
    <path class="st0" d="M628.5639,604.3038v-1.2637c0-26.5293,19.7393-43.2676,44.6895-43.2676,22.582,0,42.0049,12.9492,42.0049,42.6367v7.4219h-58.1123c.79,10.8965,7.1064,17.2129,17.2129,17.2129,9.3164,0,13.2646-4.2637,14.3701-9.791h26.5293c-2.5264,18.6338-16.8965,29.2139-41.8467,29.2139-25.8984,0-44.8477-15.1592-44.8477-42.1631ZM687.7817,593.8819c-.4736-9.9492-5.3691-15.4756-14.5283-15.4756-8.5273,0-14.3701,5.5264-15.791,15.4756h30.3193Z"/>
    <path class="st0" d="M727.4174,561.9835h28.2666v16.4229c5.2119-12.3174,13.8965-17.6865,26.6875-17.5283v26.3711c-17.2119-.4736-26.6875,4.8955-26.6875,18.1602v39.1621h-28.2666v-82.5879Z"/>
    <path class="st0" d="M794.3725,539.5596c0-8.3691,6.6328-14.6855,15.4756-14.6855s15.6338,6.3164,15.6338,14.6855-6.791,14.5273-15.6338,14.5273-15.4756-6.1582-15.4756-14.5273ZM795.7944,561.9835h28.2656v82.5879h-28.2656v-82.5879Z"/>
    <path class="st0" d="M841.5893,561.9835h28.2656v13.2646c4.4219-8.5273,13.4238-15.4756,27.1621-15.4756,15.9492,0,27.0029,9.9482,27.0029,31.1094v53.6895h-28.2666v-48.0049c0-9.3174-3.6318-13.8965-11.8438-13.8965-8.3691,0-14.0547,5.0537-14.0547,15.6338v46.2676h-28.2656v-82.5879Z"/>
    <path class="st0" d="M935.5483,644.5714h28.1074c1.2637,6.001,4.8965,10.7383,15.1602,10.7383,12.4746,0,17.5283-7.1055,17.5283-17.3701v-12.6338c-4.2637,7.8965-13.2646,15.1602-25.582,15.1602-19.2646,0-35.0566-14.2119-35.0566-39.6367v-1.2627c0-24.3184,15.6338-39.7939,35.0566-39.7939,13.1064,0,20.8447,5.5273,25.582,13.8965v-11.6855h28.2666v75.6406c0,24.6338-16.2656,37.583-45.7949,37.583-28.1084,0-41.0576-11.8438-43.2676-30.6357ZM997.1342,600.6719v-1.1055c0-11.3701-5.8438-18.6338-16.2656-18.6338-10.5801,0-16.2646,7.4219-16.2646,18.792v1.2627c0,11.3701,6.001,18.6348,16.1064,18.6348s16.4238-7.2646,16.4238-18.9502Z"/>
  </g>
  <path class="st0" d="M1039.1784,579.6024c0-10.4435,8.5064-18.7815,19.2867-18.7815,10.9482,0,19.3702,8.2536,19.3702,18.6971,0,10.6119-8.5899,18.6971-19.3702,18.6971-10.6968,0-19.2867-8.0013-19.2867-18.6126h0ZM1074.1301,579.5179c0-9.0959-6.5693-15.4964-15.6649-15.4964s-15.5814,6.4849-15.5814,15.5808c0,9.18,6.8216,15.4125,15.5814,15.4125,8.8431,0,15.6649-6.4009,15.6649-15.4969ZM1051.3058,570.0852h7.5796c5.0534,0,7.665,2.0216,7.665,5.9797v.0845c0,2.6106-1.2636,4.0426-3.1163,4.8845l4.2109,7.4956h-6.0646l-3.3686-6.3165h-1.0103v6.3165h-5.8958v-18.4443h0ZM1058.4652,578.4231c1.5994,0,2.3573-.6739,2.3573-1.9371v-.0845c0-1.3475-.758-1.8527-2.3573-1.8527h-1.2636v3.8742h1.2636Z"/>
</svg>